<svg width="61" height="66" xmlns="http://www.w3.org/2000/svg" xmlns:xlink="http://www.w3.org/1999/xlink" xml:space="preserve" overflow="hidden"><defs><filter id="fx0" x="-10%" y="-10%" width="120%" height="120%" filterUnits="userSpaceOnUse" primitiveUnits="userSpaceOnUse"><feComponentTransfer color-interpolation-filters="sRGB"><feFuncR type="discrete" tableValues="0 0"/><feFuncG type="discrete" tableValues="0 0"/><feFuncB type="discrete" tableValues="0 0"/><feFuncA type="linear" slope="1" intercept="0"/></feComponentTransfer><feGaussianBlur stdDeviation="6.11111 6.11111"/></filter><clipPath id="clip1"><rect x="287" y="130" width="61" height="66"/></clipPath></defs><g clip-path="url(#clip1)" transform="translate(-287 -130)"><g filter="url(#fx0)" transform="translate(286 129)"><g><path d="M39.7376 22.9594C44.304 27.5258 44.304 34.9293 39.7376 39.4957 36.9816 42.2517 34.2255 45.0078 31.4695 47.7638 28.7134 45.0078 25.9574 42.2517 23.2013 39.4957 18.635 34.9293 18.635 27.5258 23.2013 22.9594 27.7677 18.393 35.1712 18.393 39.7376 22.9594Z" fill="#FFFFFF" fill-rule="evenodd"/><g><g><g><path d="M30.8691 34.0076 32.1066 34.0076 32.1066 31.5326 34.5816 31.5326 34.5816 30.2951 32.1066 30.2951 32.1066 27.8201 30.8691 27.8201 30.8691 30.2951 28.3941 30.2951 28.3941 31.5326 30.8691 31.5326 30.8691 34.0076ZM31.4879 39.1844C33.3166 37.5207 34.6676 36.0116 35.5407 34.6572 36.4138 33.3029 36.8504 32.1101 36.8504 31.0788 36.8504 29.4592 36.3327 28.133 35.2975 27.1002 34.2623 26.0676 32.9924 25.5513 31.4879 25.5513 29.9833 25.5513 28.7134 26.0676 27.6782 27.1002 26.643 28.133 26.1254 29.4592 26.1254 31.0788 26.1254 32.1101 26.5722 33.3029 27.466 34.6572 28.3597 36.0116 29.7004 37.5207 31.4879 39.1844ZM31.4879 40.8138C29.2741 38.9301 27.6207 37.1804 26.5275 35.5647 25.4344 33.9491 24.8879 32.4538 24.8879 31.0788 24.8879 29.0163 25.5513 27.3732 26.8782 26.1494 28.205 24.9257 29.7416 24.3138 31.4879 24.3138 33.2341 24.3138 34.7707 24.9257 36.0975 26.1494 37.4244 27.3732 38.0879 29.0163 38.0879 31.0788 38.0879 32.4538 37.5413 33.9491 36.4482 35.5647 35.355 37.1804 33.7016 38.9301 31.4879 40.8138Z" fill="#4EA72E"/></g></g></g></g></g><path d="M331.25 140.493C338.86 148.103 338.86 160.442 331.25 168.053 326.656 172.646 322.063 177.24 317.469 181.833 312.876 177.24 308.283 172.646 303.689 168.053 296.079 160.442 296.079 148.103 303.689 140.493 311.3 132.882 323.639 132.882 331.25 140.493Z" fill="#FFFFFF" fill-rule="evenodd"/><g><g><g><path d="M316.469 158.906 318.531 158.906 318.531 154.781 322.656 154.781 322.656 152.719 318.531 152.719 318.531 148.594 316.469 148.594 316.469 152.719 312.344 152.719 312.344 154.781 316.469 154.781 316.469 158.906ZM317.5 167.534C320.548 164.761 322.8 162.246 324.255 159.989 325.71 157.732 326.438 155.744 326.438 154.025 326.438 151.326 325.575 149.115 323.85 147.394 322.124 145.673 320.008 144.812 317.5 144.812 314.993 144.812 312.876 145.673 311.151 147.394 309.425 149.115 308.563 151.326 308.563 154.025 308.563 155.744 309.307 157.732 310.797 159.989 312.287 162.246 314.521 164.761 317.5 167.534ZM317.5 170.25C313.811 167.11 311.055 164.194 309.233 161.501 307.411 158.809 306.5 156.317 306.5 154.025 306.5 150.587 307.606 147.849 309.817 145.809 312.029 143.77 314.59 142.75 317.5 142.75 320.411 142.75 322.971 143.77 325.183 145.809 327.394 147.849 328.5 150.587 328.5 154.025 328.5 156.317 327.589 158.809 325.767 161.501 323.945 164.194 321.19 167.11 317.5 170.25Z" fill="#4EA72E"/></g></g></g></g></svg>