<svg width="40" height="49" xmlns="http://www.w3.org/2000/svg" xmlns:xlink="http://www.w3.org/1999/xlink" xml:space="preserve" overflow="hidden"><g transform="translate(-1354 -706)"><path d="M1387.8 712.704C1395.41 720.314 1395.41 732.654 1387.8 740.264 1383.21 744.858 1378.61 749.451 1374.02 754.044 1369.43 749.451 1364.83 744.858 1360.24 740.264 1352.63 732.654 1352.63 720.314 1360.24 712.704 1367.85 705.093 1380.19 705.093 1387.8 712.704Z" fill="#FFFFFF" fill-rule="evenodd"/><g><g><g><path d="M15-13.6667 17-13.6667 17-17.6666 21-17.6666 21-19.6666 17-19.6666 17-23.6666 15-23.6666 15-19.6666 11-19.6666 11-17.6666 15-17.6666 15-13.6667ZM16-5.29999C18.9555-7.98889 21.1389-10.4278 22.55-12.6167 23.9611-14.8056 24.6666-16.7333 24.6666-18.4 24.6666-21.0175 23.8301-23.1609 22.157-24.83 20.4839-26.4989 18.4315-27.3333 16-27.3333 13.5684-27.3333 11.5161-26.4989 9.84299-24.83 8.16989-23.1609 7.33333-21.0175 7.33333-18.4 7.33333-16.7333 8.05556-14.8056 9.49999-12.6167 10.9444-10.4278 13.1111-7.98889 16-5.29999ZM16-2.66666C12.4222-5.71109 9.74999-8.53889 7.98333-11.15 6.21666-13.7611 5.33333-16.1777 5.33333-18.4 5.33333-21.7333 6.40556-24.3889 8.54999-26.3666 10.6944-28.3444 13.1778-29.3333 16-29.3333 18.8222-29.3333 21.3055-28.3444 23.45-26.3666 25.5944-24.3889 26.6666-21.7333 26.6666-18.4 26.6666-16.1777 25.7833-13.7611 24.0166-11.15 22.25-8.53889 19.5777-5.71109 16-2.66666Z" fill="#4EA72E" transform="matrix(1.0625 0 0 1 1357 745)"/></g></g></g></g></svg>