<svg width="61" height="66" xmlns="http://www.w3.org/2000/svg" xmlns:xlink="http://www.w3.org/1999/xlink" xml:space="preserve" overflow="hidden"><defs><filter id="fx0" x="-10%" y="-10%" width="120%" height="120%" filterUnits="userSpaceOnUse" primitiveUnits="userSpaceOnUse"><feComponentTransfer color-interpolation-filters="sRGB"><feFuncR type="discrete" tableValues="0 0"/><feFuncG type="discrete" tableValues="0 0"/><feFuncB type="discrete" tableValues="0 0"/><feFuncA type="linear" slope="1" intercept="0"/></feComponentTransfer><feGaussianBlur stdDeviation="6.11111 6.11111"/></filter><clipPath id="clip1"><rect x="392" y="267" width="61" height="66"/></clipPath></defs><g clip-path="url(#clip1)" transform="translate(-392 -267)"><g filter="url(#fx0)" transform="translate(391 266)"><g><path d="M39.8407 23.5345C44.407 28.1008 44.407 35.5044 39.8407 40.0708 37.0846 42.8268 34.3286 45.5828 31.5725 48.3389 28.8165 45.5828 26.0604 42.8268 23.3044 40.0708 18.738 35.5044 18.738 28.1008 23.3044 23.5345 27.8707 18.9681 35.2743 18.9681 39.8407 23.5345Z" fill="#FFFFFF" fill-rule="evenodd"/><g><g><g><path d="M6.55875-4.84688 8.9925-4.84688 8.9925-5.63063 7.3425-5.63063 7.3425-6.57938 8.9925-6.57938 8.9925-9.01313 6.55875-9.01313 6.55875-8.22937 8.20875-8.22937 8.20875-7.36313 6.55875-7.36313 6.55875-4.84688ZM12.4575-4.84688 13.2413-4.84688 13.2413-9.01313 12.4575-9.01313 12.4575-7.36313 11.5913-7.36313 11.5913-9.01313 10.8075-9.01313 10.8075-6.57938 12.4575-6.57938 12.4575-4.84688ZM17.325-10.7044 17.325-3.7125C17.325-3.3825 17.2013-3.09375 16.9538-2.84625 16.7063-2.59875 16.4175-2.475 16.0875-2.475L3.69188-2.475C3.36188-2.475 3.07313-2.59875 2.82563-2.84625 2.57812-3.09375 2.45438-3.3825 2.45438-3.7125L2.45438-10.7044C2.06937-11.0344 1.815-11.44 1.69125-11.9213 1.5675-12.4025 1.58125-12.8838 1.7325-13.365L2.61937-16.1494C2.72937-16.5206 2.92188-16.8094 3.19688-17.0156 3.47187-17.2219 3.78813-17.325 4.14563-17.325L15.5513-17.325C15.9363-17.325 16.2731-17.2184 16.5619-17.0053 16.8506-16.7922 17.05-16.5069 17.16-16.1494L18.0675-13.365C18.2187-12.8838 18.2291-12.4025 18.0984-11.9213 17.9678-11.44 17.71-11.0344 17.325-10.7044ZM11.7563-11.3438C12.155-11.3438 12.4919-11.4744 12.7669-11.7356 13.0419-11.9969 13.1519-12.3131 13.0969-12.6844L12.5813-16.0875 10.5188-16.0875 10.5188-12.6844C10.5188-12.3269 10.6356-12.0141 10.8694-11.7459 11.1031-11.4778 11.3988-11.3438 11.7563-11.3438ZM7.89938-11.3438C8.28438-11.3438 8.61094-11.4744 8.87906-11.7356 9.14719-11.9969 9.28125-12.3131 9.28125-12.6844L9.28125-16.0875 7.21875-16.0875 6.70313-12.6844C6.64812-12.3269 6.74438-12.0141 6.99188-11.7459 7.23938-11.4778 7.54188-11.3438 7.89938-11.3438ZM4.14563-11.3438C4.47563-11.3438 4.76093-11.4572 5.00156-11.6841 5.24219-11.9109 5.38313-12.1894 5.42438-12.5194L5.96063-16.0875 3.89813-16.0875 2.94938-13.0763C2.81187-12.65 2.86688-12.2547 3.11438-11.8903 3.36188-11.5259 3.70563-11.3438 4.14563-11.3438ZM15.6338-11.3438C16.0737-11.3438 16.4209-11.5225 16.6753-11.88 16.9297-12.2375 16.9881-12.6363 16.8506-13.0763L15.9019-16.0875 13.8394-16.0875 14.3756-12.5194C14.4169-12.1894 14.5578-11.9109 14.7984-11.6841 15.0391-11.4572 15.3175-11.3438 15.6338-11.3438ZM3.69188-3.7125 16.0875-3.7125 16.0875-10.1269C16.1013-10.1131 16.0566-10.1063 15.9534-10.1063L15.6338-10.1063C15.29-10.1063 14.9634-10.1784 14.6541-10.3228 14.3447-10.4672 14.0388-10.6906 13.7363-10.9931 13.5162-10.7181 13.2413-10.5016 12.9113-10.3434 12.5813-10.1853 12.2169-10.1063 11.8181-10.1063 11.4056-10.1063 11.0516-10.1647 10.7559-10.2816 10.4603-10.3984 10.175-10.5944 9.9-10.8694 9.69375-10.6219 9.43249-10.4328 9.11625-10.3022 8.80001-10.1716 8.44249-10.1063 8.04375-10.1063 7.61749-10.1063 7.23938-10.1819 6.90938-10.3331 6.57938-10.4844 6.29749-10.7044 6.06375-10.9931 5.73375-10.7044 5.41062-10.4844 5.09438-10.3331 4.77813-10.1819 4.46187-10.1063 4.14563-10.1063L3.86719-10.1063C3.77782-10.1063 3.71937-10.1131 3.69188-10.1269L3.69188-3.7125ZM16.0875-3.7125 3.69188-3.7125 16.0875-3.7125Z" fill="#4B77D1" transform="matrix(1.0303 0 0 1 21.629 42.0939)"/></g></g></g></g></g><path d="M436.353 278.068C443.963 285.678 443.963 298.018 436.353 305.628 431.759 310.222 427.166 314.815 422.573 319.408 417.979 314.815 413.386 310.222 408.792 305.628 401.182 298.018 401.182 285.678 408.792 278.068 416.403 270.457 428.742 270.457 436.353 278.068Z" fill="#FFFFFF" fill-rule="evenodd"/><g><g><g><path d="M10.9313-8.07812 14.9875-8.07812 14.9875-9.38438 12.2375-9.38438 12.2375-10.9656 14.9875-10.9656 14.9875-15.0219 10.9313-15.0219 10.9313-13.7156 13.6813-13.7156 13.6813-12.2719 10.9313-12.2719 10.9313-8.07812ZM20.7625-8.07812 22.0688-8.07812 22.0688-15.0219 20.7625-15.0219 20.7625-12.2719 19.3188-12.2719 19.3188-15.0219 18.0125-15.0219 18.0125-10.9656 20.7625-10.9656 20.7625-8.07812ZM28.875-17.8406 28.875-6.1875C28.875-5.6375 28.6688-5.15625 28.2563-4.74375 27.8438-4.33125 27.3625-4.125 26.8125-4.125L6.15313-4.125C5.60313-4.125 5.12188-4.33125 4.70937-4.74375 4.29688-5.15625 4.09063-5.6375 4.09063-6.1875L4.09063-17.8406C3.44895-18.3906 3.025-19.0667 2.81875-19.8687 2.6125-20.6708 2.63542-21.4729 2.8875-22.275L4.36562-26.9156C4.54895-27.5344 4.8698-28.0156 5.32812-28.3594 5.78645-28.7031 6.31355-28.875 6.90938-28.875L25.9188-28.875C26.5604-28.875 27.1219-28.6974 27.6031-28.3422 28.0844-27.987 28.4167-27.5114 28.6-26.9156L30.1125-22.275C30.3646-21.4729 30.3818-20.6708 30.1641-19.8687 29.9464-19.0667 29.5167-18.3906 28.875-17.8406ZM19.5938-18.9062C20.2583-18.9062 20.8198-19.1239 21.2781-19.5594 21.7364-19.9948 21.9198-20.5219 21.8281-21.1406L20.9688-26.8125 17.5312-26.8125 17.5312-21.1406C17.5312-20.5448 17.7261-20.0234 18.1156-19.5766 18.5052-19.1297 18.9979-18.9062 19.5938-18.9062ZM13.1656-18.9062C13.8073-18.9062 14.3516-19.1239 14.7984-19.5594 15.2453-19.9948 15.4688-20.5219 15.4688-21.1406L15.4688-26.8125 12.0312-26.8125 11.1719-21.1406C11.0802-20.5448 11.2406-20.0234 11.6531-19.5766 12.0656-19.1297 12.5698-18.9062 13.1656-18.9062ZM6.90938-18.9062C7.45938-18.9062 7.93488-19.0953 8.33594-19.4734 8.73699-19.8516 8.97188-20.3156 9.04063-20.8656L9.93437-26.8125 6.49688-26.8125 4.91563-21.7938C4.68645-21.0833 4.77813-20.4245 5.19063-19.8172 5.60313-19.2099 6.17605-18.9062 6.90938-18.9062ZM26.0562-18.9062C26.7896-18.9062 27.3682-19.2042 27.7922-19.8 28.2161-20.3958 28.3136-21.0604 28.0844-21.7938L26.5031-26.8125 23.0656-26.8125 23.9594-20.8656C24.0281-20.3156 24.263-19.8516 24.6641-19.4734 25.0651-19.0953 25.5292-18.9062 26.0562-18.9062ZM6.15313-6.1875 26.8125-6.1875 26.8125-16.8781C26.8354-16.8552 26.7609-16.8438 26.5891-16.8438L26.0562-16.8438C25.4833-16.8438 24.9391-16.9641 24.4234-17.2047 23.9078-17.4453 23.3979-17.8177 22.8938-18.3219 22.5271-17.8636 22.0688-17.5026 21.5188-17.2391 20.9688-16.9755 20.3614-16.8438 19.6969-16.8438 19.0094-16.8438 18.4193-16.9411 17.9266-17.1359 17.4339-17.3307 16.9583-17.6573 16.5-18.1156 16.1562-17.7031 15.7208-17.388 15.1938-17.1703 14.6667-16.9526 14.0708-16.8438 13.4062-16.8438 12.6958-16.8438 12.0656-16.9698 11.5156-17.2219 10.9656-17.4739 10.4958-17.8406 10.1062-18.3219 9.55625-17.8406 9.0177-17.4739 8.49063-17.2219 7.96355-16.9698 7.43645-16.8438 6.90938-16.8438L6.44531-16.8438C6.29637-16.8438 6.19895-16.8552 6.15313-16.8781L6.15313-6.1875ZM26.8125-6.1875 6.15313-6.1875 26.8125-6.1875Z" fill="#4B77D1" transform="matrix(1.0303 0 0 1 406 309)"/></g></g></g></g></svg>