<svg width="61" height="66" xmlns="http://www.w3.org/2000/svg" xmlns:xlink="http://www.w3.org/1999/xlink" xml:space="preserve" overflow="hidden"><defs><filter id="fx0" x="-10%" y="-10%" width="120%" height="120%" filterUnits="userSpaceOnUse" primitiveUnits="userSpaceOnUse"><feComponentTransfer color-interpolation-filters="sRGB"><feFuncR type="discrete" tableValues="0 0"/><feFuncG type="discrete" tableValues="0 0"/><feFuncB type="discrete" tableValues="0 0"/><feFuncA type="linear" slope="1" intercept="0"/></feComponentTransfer><feGaussianBlur stdDeviation="6.11111 6.11111"/></filter><clipPath id="clip1"><rect x="394" y="396" width="61" height="66"/></clipPath></defs><g clip-path="url(#clip1)" transform="translate(-394 -396)"><g filter="url(#fx0)" transform="translate(393 395)"><g><path d="M39.9573 23.5134C44.5236 28.0798 44.5236 35.4834 39.9573 40.0497 37.2012 42.8058 34.4452 45.5618 31.6891 48.3179 28.9331 45.5618 26.177 42.8058 23.421 40.0497 18.8546 35.4834 18.8546 28.0798 23.421 23.5134 27.9874 18.9471 35.3909 18.9471 39.9573 23.5134Z" fill="#FFFFFF" fill-rule="evenodd"/><g><g><g><path d="M31.5551 41.2604 27.8219 33.6704C26.8732 33.8354 26.0241 33.6292 25.2748 33.0517 24.5254 32.4742 24.1507 31.6698 24.1507 30.6386 24.1507 30.0198 24.3398 29.4148 24.7179 28.8236 25.096 28.2323 25.6494 27.8336 26.3782 27.6273 26.5982 26.2661 27.2066 25.1729 28.2035 24.3479 29.2004 23.5229 30.3244 23.1104 31.5757 23.1104 32.8269 23.1104 33.9476 23.5229 34.9376 24.3479 35.9276 25.1729 36.5394 26.2661 36.7732 27.6273 37.5019 27.8336 38.0554 28.2323 38.4335 28.8236 38.8116 29.4148 39.0007 30.0198 39.0007 30.6386 39.0007 31.6698 38.6123 32.4742 37.8354 33.0517 37.0585 33.6292 36.2369 33.8354 35.3707 33.6704L31.5551 41.2604ZM27.1619 32.4948C27.4094 32.4948 27.6432 32.4604 27.8632 32.3917 28.0832 32.323 28.2551 32.2267 28.3788 32.103L28.9151 31.5461 29.3894 31.9586C29.7332 32.1923 30.1079 32.3401 30.5135 32.402 30.9191 32.4639 31.2938 32.4948 31.6376 32.4948 31.9813 32.4948 32.3319 32.4639 32.6894 32.402 33.0469 32.3401 33.3976 32.1923 33.7413 31.9586L34.2363 31.5461 34.7519 32.103C34.8757 32.2267 35.051 32.323 35.2779 32.3917 35.5048 32.4604 35.7351 32.4948 35.9688 32.4948 36.4363 32.4948 36.8522 32.3058 37.2166 31.9276 37.581 31.5495 37.7632 31.1198 37.7632 30.6386 37.7632 30.2123 37.6326 29.8411 37.3713 29.5248 37.1101 29.2086 36.7388 29.0092 36.2576 28.9267L35.5357 28.8236 35.4944 28.0192C35.3432 26.9329 34.9204 26.0495 34.226 25.3689 33.5316 24.6883 32.6482 24.3479 31.5757 24.3479 30.5032 24.3479 29.6163 24.6883 28.9151 25.3689 28.2138 26.0495 27.7944 26.9329 27.6569 28.0192L27.5951 28.8236 26.8732 28.9886C26.4607 29.0986 26.1101 29.2945 25.8213 29.5764 25.5326 29.8583 25.3882 30.2123 25.3882 30.6386 25.3882 31.1198 25.5704 31.5495 25.9348 31.9276 26.2991 32.3058 26.7082 32.4948 27.1619 32.4948ZM31.5551 38.4554 34.1951 33.2579 34.0713 33.1342C33.6863 33.3405 33.2704 33.4917 32.8235 33.5879 32.3766 33.6842 31.9813 33.7323 31.6376 33.7323 31.1976 33.7323 30.7507 33.6842 30.2969 33.5879 29.8432 33.4917 29.4444 33.3405 29.1007 33.1342L28.9769 33.2373 31.5551 38.4554Z" fill="#EA33F7"/></g></g></g></g></g><path d="M438.469 407.047C446.08 414.657 446.08 426.996 438.469 434.607 433.876 439.201 429.283 443.794 424.689 448.387 420.096 443.794 415.502 439.201 410.909 434.607 403.298 426.996 403.298 414.657 410.909 407.047 418.52 399.436 430.859 399.436 438.469 407.047Z" fill="#FFFFFF" fill-rule="evenodd"/><g><g><g><path d="M424.466 436.625 418.244 423.975C416.663 424.25 415.247 423.906 413.998 422.944 412.75 421.981 412.125 420.641 412.125 418.922 412.125 417.891 412.44 416.882 413.07 415.897 413.701 414.911 414.623 414.247 415.838 413.903 416.204 411.634 417.218 409.812 418.88 408.437 420.541 407.062 422.415 406.375 424.5 406.375 426.585 406.375 428.453 407.062 430.103 408.437 431.753 409.812 432.773 411.634 433.163 413.903 434.377 414.247 435.3 414.911 435.93 415.897 436.56 416.882 436.875 417.891 436.875 418.922 436.875 420.641 436.228 421.981 434.933 422.944 433.638 423.906 432.269 424.25 430.825 423.975L424.466 436.625ZM417.144 422.016C417.556 422.016 417.946 421.958 418.313 421.844 418.679 421.729 418.966 421.569 419.172 421.362L420.066 420.434 420.856 421.122C421.429 421.511 422.054 421.758 422.73 421.861 423.406 421.964 424.03 422.016 424.603 422.016 425.176 422.016 425.76 421.964 426.356 421.861 426.952 421.758 427.536 421.511 428.109 421.122L428.934 420.434 429.794 421.362C430 421.569 430.292 421.729 430.67 421.844 431.048 421.958 431.432 422.016 431.822 422.016 432.601 422.016 433.294 421.7 433.902 421.07 434.509 420.44 434.813 419.724 434.813 418.922 434.813 418.211 434.595 417.593 434.159 417.066 433.724 416.538 433.105 416.206 432.303 416.069L431.1 415.897 431.031 414.556C430.779 412.746 430.075 411.273 428.917 410.139 427.76 409.005 426.288 408.437 424.5 408.437 422.713 408.437 421.234 409.005 420.066 410.139 418.897 411.273 418.198 412.746 417.969 414.556L417.866 415.897 416.663 416.172C415.975 416.355 415.391 416.682 414.909 417.151 414.428 417.621 414.188 418.211 414.188 418.922 414.188 419.724 414.491 420.44 415.098 421.07 415.706 421.7 416.388 422.016 417.144 422.016ZM424.466 431.95 428.866 423.287 428.659 423.081C428.018 423.425 427.325 423.677 426.58 423.837 425.835 423.998 425.176 424.078 424.603 424.078 423.87 424.078 423.125 423.998 422.369 423.837 421.613 423.677 420.948 423.425 420.375 423.081L420.169 423.253 424.466 431.95Z" fill="#EA33F7"/></g></g></g></g></svg>