<svg width="61" height="66" xmlns="http://www.w3.org/2000/svg" xmlns:xlink="http://www.w3.org/1999/xlink" xml:space="preserve" overflow="hidden"><defs><filter id="fx0" x="-10%" y="-10%" width="120%" height="120%" filterUnits="userSpaceOnUse" primitiveUnits="userSpaceOnUse"><feComponentTransfer color-interpolation-filters="sRGB"><feFuncR type="discrete" tableValues="0 0"/><feFuncG type="discrete" tableValues="0 0"/><feFuncB type="discrete" tableValues="0 0"/><feFuncA type="linear" slope="1" intercept="0"/></feComponentTransfer><feGaussianBlur stdDeviation="6.11111 6.11111"/></filter><clipPath id="clip1"><rect x="389" y="139" width="61" height="66"/></clipPath></defs><g clip-path="url(#clip1)" transform="translate(-389 -139)"><g filter="url(#fx0)" transform="translate(388 138)"><g><path d="M39.5883 23.1781C44.1546 27.7444 44.1546 35.148 39.5883 39.7143 36.8322 42.4704 34.0762 45.2264 31.3201 47.9825 28.5641 45.2264 25.808 42.4704 23.052 39.7143 18.4856 35.148 18.4856 27.7444 23.052 23.1781 27.6184 18.6117 35.0219 18.6117 39.5883 23.1781Z" fill="#FFFFFF" fill-rule="evenodd"/><g><g><g><path d="M16.1-5.21999C16.46-5.03333 16.7633-5.09333 17.01-5.39999 17.2566-5.70665 17.2866-6.02665 17.1-6.35999L15.68-9.03999 14.6-6.09999 16.1-5.21999ZM11.86-6.05999 13.26-6.05999 15.2-10.9C15.28-11.0866 15.31-11.27 15.29-11.45 15.27-11.63 15.16-11.7666 14.96-11.86L13.3-12.58C13.1133-12.6733 12.9266-12.6733 12.74-12.58 12.5533-12.4866 12.4533-12.3466 12.44-12.16L11.86-6.05999ZM5.93999-6.05999 7.31999-6.05999 6.75999-12.16C6.74665-12.36 6.65665-12.5066 6.48999-12.6 6.32333-12.6933 6.12665-12.6866 5.89999-12.58L4.32-11.9C4.14666-11.8333 4.05-11.6833 4.03-11.45 4.01-11.2166 4.03334-11.0066 4.1-10.82L5.93999-6.05999ZM3.1-5.21999 4.6-6.09999 3.52-9.03999 2.1-6.25999C1.91333-5.88665 1.95333-5.58333 2.22-5.34999 2.48666-5.11665 2.78-5.07333 3.1-5.21999ZM8.51999-6.05999 10.66-6.05999 11.32-13.34C11.3466-13.5266 11.2966-13.6833 11.17-13.81 11.0433-13.9366 10.8866-14 10.7-14L8.49999-14C8.28665-14 8.12665-13.9366 8.01999-13.81 7.91333-13.6833 7.86665-13.5266 7.87999-13.34L8.51999-6.05999ZM2.66-4C2.14-4 1.7-4.18666 1.34-4.56 0.979999-4.93333 0.799999-5.37999 0.799999-5.89999 0.799999-6.05999 0.829999-6.21665 0.889999-6.36999 0.949999-6.52333 1.01333-6.67333 1.08-6.81999L2.92-10.4C2.72-10.92 2.7-11.4366 2.86-11.95 3.02-12.4633 3.34-12.8266 3.82-13.04L5.47999-13.72C5.69333-13.8 5.90999-13.8466 6.12999-13.86 6.34999-13.8733 6.55333-13.82 6.73999-13.7 6.84665-14.1266 7.05999-14.4833 7.37999-14.77 7.69999-15.0566 8.07333-15.2 8.49999-15.2L10.7-15.2C11.1266-15.2 11.5-15.0666 11.82-14.8 12.14-14.5333 12.3533-14.1933 12.46-13.78 12.66-13.86 12.8666-13.8933 13.08-13.88 13.2933-13.8666 13.5-13.8133 13.7-13.72L15.38-13.04C15.8733-12.8533 16.2033-12.5066 16.37-12 16.5366-11.4933 16.5066-11 16.28-10.52L18.12-6.83999C18.1733-6.69333 18.2333-6.54999 18.3-6.40999 18.3666-6.26999 18.4-6.12665 18.4-5.97999 18.4-5.41999 18.2-4.95 17.8-4.57 17.4-4.19 16.92-4 16.36-4 16.2133-4 16.0766-4.03 15.95-4.09 15.8233-4.15 15.6933-4.20666 15.56-4.26L14.34-4.85999 4.83999-4.85999 3.68-4.26C3.52-4.19334 3.35666-4.13334 3.19-4.08 3.02334-4.02666 2.84666-4 2.66-4Z" fill="#A96424" transform="matrix(1.03125 0 0 1 21.528 40.1514)"/></g></g></g></g></g><path d="M433.1 149.711C440.711 157.322 440.711 169.661 433.1 177.272 428.507 181.865 423.914 186.459 419.32 191.052 414.727 186.459 410.133 181.865 405.54 177.272 397.929 169.661 397.929 157.322 405.54 149.711 413.151 142.101 425.49 142.101 433.1 149.711Z" fill="#FFFFFF" fill-rule="evenodd"/><g><g><g><path d="M26.8333-8.69999C27.4333-8.38889 27.9389-8.48889 28.35-8.99999 28.7611-9.51109 28.8111-10.0444 28.5-10.6L26.1333-15.0667 24.3333-10.1667 26.8333-8.69999ZM19.7666-10.1 22.1-10.1 25.3333-18.1666C25.4666-18.4777 25.5166-18.7833 25.4833-19.0833 25.45-19.3833 25.2666-19.6111 24.9333-19.7666L22.1666-20.9666C21.8555-21.1222 21.5444-21.1222 21.2333-20.9666 20.9222-20.8111 20.7555-20.5777 20.7333-20.2666L19.7666-10.1ZM9.89999-10.1 12.2-10.1 11.2667-20.2666C11.2444-20.6 11.0944-20.8444 10.8167-21 10.5389-21.1555 10.2111-21.1444 9.83332-20.9666L7.19999-19.8333C6.91109-19.7222 6.74999-19.4722 6.71666-19.0833 6.68333-18.6944 6.72223-18.3444 6.83333-18.0333L9.89999-10.1ZM5.16666-8.69999 7.66666-10.1667 5.86666-15.0667 3.5-10.4333C3.18889-9.81109 3.25555-9.30556 3.7-8.91666 4.14443-8.52776 4.63333-8.45556 5.16666-8.69999ZM14.2-10.1 17.7666-10.1 18.8666-22.2333C18.9111-22.5444 18.8277-22.8055 18.6166-23.0166 18.4055-23.2277 18.1444-23.3333 17.8333-23.3333L14.1667-23.3333C13.8111-23.3333 13.5444-23.2277 13.3667-23.0166 13.1889-22.8055 13.1111-22.5444 13.1333-22.2333L14.2-10.1ZM4.43333-6.66666C3.56666-6.66666 2.83333-6.97776 2.23333-7.59999 1.63333-8.22223 1.33333-8.96666 1.33333-9.83332 1.33333-10.1 1.38333-10.3611 1.48333-10.6167 1.58333-10.8722 1.68889-11.1222 1.8-11.3667L4.86666-17.3333C4.53333-18.2 4.5-19.0611 4.76666-19.9166 5.03333-20.7722 5.56666-21.3777 6.36666-21.7333L9.13332-22.8666C9.48889-23 9.84999-23.0777 10.2167-23.1 10.5833-23.1222 10.9222-23.0333 11.2333-22.8333 11.4111-23.5444 11.7667-24.1389 12.3-24.6166 12.8333-25.0944 13.4556-25.3333 14.1667-25.3333L17.8333-25.3333C18.5444-25.3333 19.1666-25.1111 19.7-24.6666 20.2333-24.2222 20.5889-23.6555 20.7666-22.9666 21.1-23.1 21.4444-23.1555 21.8-23.1333 22.1555-23.1111 22.5-23.0222 22.8333-22.8666L25.6333-21.7333C26.4555-21.4222 27.0055-20.8444 27.2833-20 27.5611-19.1555 27.5111-18.3333 27.1333-17.5333L30.2-11.4C30.2889-11.1556 30.3889-10.9167 30.5-10.6833 30.6111-10.45 30.6666-10.2111 30.6666-9.96666 30.6666-9.03332 30.3333-8.24999 29.6666-7.61666 29-6.98333 28.2-6.66666 27.2666-6.66666 27.0222-6.66666 26.7944-6.71666 26.5833-6.81666 26.3722-6.91666 26.1555-7.01109 25.9333-7.09999L23.9-8.09999 8.06666-8.09999 6.13333-7.09999C5.86666-6.98889 5.59443-6.88889 5.31666-6.79999 5.03889-6.71109 4.74443-6.66666 4.43333-6.66666Z" fill="#A96424" transform="matrix(1.03125 0 0 1 403 178)"/></g></g></g></g></svg>