<svg width="40" height="48" xmlns="http://www.w3.org/2000/svg" xmlns:xlink="http://www.w3.org/1999/xlink" xml:space="preserve" overflow="hidden"><g transform="translate(-2057 -198)"><path d="M2091.19 204.451C2098.8 212.061 2098.8 224.401 2091.19 232.011 2086.59 236.605 2082 241.198 2077.41 245.791 2072.81 241.198 2068.22 236.605 2063.63 232.011 2056.02 224.401 2056.02 212.061 2063.63 204.451 2071.24 196.84 2083.58 196.84 2091.19 204.451Z" fill="#FFFFFF" fill-rule="evenodd"/><g><g><g><path d="M5.33333-4 5.33333-5.99999 26.6666-5.99999 26.6666-4 5.33333-4ZM10.3667-8.66666C8.96666-8.66666 7.77777-9.14999 6.79999-10.1167 5.82222-11.0833 5.33333-12.2667 5.33333-13.6667L5.33333-28 27.3333-28C27.8833-28 28.3542-27.8042 28.746-27.4126 29.1375-27.0209 29.3333-26.55 29.3333-26L29.3333-20.6666C29.3333-20.1166 29.1375-19.6459 28.746-19.2543 28.3542-18.8625 27.8833-18.6666 27.3333-18.6666L24.1333-18.6666 24.1333-13.6667C24.1333-12.2667 23.6444-11.0833 22.6666-10.1167 21.6889-9.14999 20.5-8.66666 19.1-8.66666L10.3667-8.66666ZM10.3667-10.6667 19.0993-10.6667C19.8998-10.6667 20.6055-10.9722 21.2166-11.5833 21.8278-12.1944 22.1333-12.8889 22.1333-13.6667L22.1333-26 7.33333-26 7.33333-13.6667C7.33333-12.8889 7.64444-12.1944 8.26666-11.5833 8.88888-10.9722 9.58888-10.6667 10.3667-10.6667ZM24.1333-20.6666 27.3333-20.6666 27.3333-26 24.1333-26 24.1333-20.6666ZM10.3667-10.6667 7.33333-10.6667 22.1333-10.6667 10.3667-10.6667Z" fill="#A96424" transform="matrix(1.03125 0 0 1 2061 235)"/></g></g></g></g></svg>