<svg width="61" height="66" xmlns="http://www.w3.org/2000/svg" xmlns:xlink="http://www.w3.org/1999/xlink" xml:space="preserve" overflow="hidden"><defs><filter id="fx0" x="-10%" y="-10%" width="120%" height="120%" filterUnits="userSpaceOnUse" primitiveUnits="userSpaceOnUse"><feComponentTransfer color-interpolation-filters="sRGB"><feFuncR type="discrete" tableValues="0 0"/><feFuncG type="discrete" tableValues="0 0"/><feFuncB type="discrete" tableValues="0 0"/><feFuncA type="linear" slope="1" intercept="0"/></feComponentTransfer><feGaussianBlur stdDeviation="6.11111 6.11111"/></filter><clipPath id="clip1"><rect x="392" y="331" width="61" height="66"/></clipPath></defs><g clip-path="url(#clip1)" transform="translate(-392 -331)"><g filter="url(#fx0)" transform="translate(391 330)"><g><path d="M39.8407 22.9473C44.407 27.5136 44.407 34.9172 39.8407 39.4835 37.0846 42.2396 34.3286 44.9956 31.5725 47.7517 28.8165 44.9956 26.0604 42.2396 23.3044 39.4835 18.738 34.9172 18.738 27.5136 23.3044 22.9473 27.8707 18.3809 35.2743 18.3809 39.8407 22.9473Z" fill="#FFFFFF" fill-rule="evenodd"/><g><g><g><path d="M27.5071 39.6089 27.5071 32.0189C26.7921 31.8677 26.1836 31.5068 25.6818 30.9361 25.1799 30.3655 24.929 29.6814 24.929 28.8839L24.929 23.1089 26.1665 23.1089 26.1665 28.8839 27.5071 28.8839 27.5071 23.1089 28.7446 23.1089 28.7446 28.8839 30.0852 28.8839 30.0852 23.1089 31.3227 23.1089 31.3227 28.8839C31.3227 29.6814 31.0718 30.3655 30.5699 30.9361 30.068 31.5068 29.4596 31.8677 28.7446 32.0189L28.7446 39.6089 27.5071 39.6089ZM36.0665 39.6089 36.0665 33.0089 33.6946 33.0089 33.6946 26.7183C33.6946 25.6321 34.0246 24.7589 34.6846 24.0989 35.3446 23.4389 36.2177 23.1089 37.304 23.1089L37.304 39.6089 36.0665 39.6089Z" fill="#7F7F7F"/></g></g></g></g></g><path d="M436.353 341.48C443.963 349.091 443.963 361.43 436.353 369.041 431.759 373.634 427.166 378.228 422.573 382.821 417.979 378.228 413.386 373.634 408.792 369.041 401.182 361.43 401.182 349.091 408.792 341.48 416.403 333.87 428.742 333.87 436.353 341.48Z" fill="#FFFFFF" fill-rule="evenodd"/><g><g><g><path d="M415.797 369.25 415.797 356.6C414.605 356.348 413.591 355.746 412.755 354.795 411.918 353.844 411.5 352.704 411.5 351.375L411.5 341.75 413.562 341.75 413.562 351.375 415.797 351.375 415.797 341.75 417.859 341.75 417.859 351.375 420.094 351.375 420.094 341.75 422.156 341.75 422.156 351.375C422.156 352.704 421.738 353.844 420.902 354.795 420.065 355.746 419.051 356.348 417.859 356.6L417.859 369.25 415.797 369.25ZM430.062 369.25 430.062 358.25 426.109 358.25 426.109 347.766C426.109 345.955 426.659 344.5 427.759 343.4 428.859 342.3 430.315 341.75 432.125 341.75L432.125 369.25 430.062 369.25Z" fill="#7F7F7F"/></g></g></g></g></svg>