<svg width="40" height="48" xmlns="http://www.w3.org/2000/svg" xmlns:xlink="http://www.w3.org/1999/xlink" xml:space="preserve" overflow="hidden"><g transform="translate(-651 -714)"><path d="M684.632 720.209C692.243 727.82 692.243 740.159 684.632 747.77 680.039 752.363 675.445 756.956 670.852 761.55 666.259 756.956 661.665 752.363 657.072 747.77 649.461 740.159 649.461 727.82 657.072 720.209 664.682 712.599 677.022 712.599 684.632 720.209Z" fill="#FFFFFF" fill-rule="evenodd"/><g><g><g><path d="M670.466 749.625 664.244 736.975C662.663 737.25 661.248 736.906 659.999 735.944 658.75 734.981 658.125 733.641 658.125 731.922 658.125 730.891 658.44 729.882 659.07 728.897 659.701 727.912 660.623 727.247 661.838 726.903 662.204 724.635 663.218 722.813 664.88 721.438 666.541 720.063 668.415 719.375 670.5 719.375 672.586 719.375 674.453 720.063 676.103 721.438 677.753 722.813 678.773 724.635 679.163 726.903 680.377 727.247 681.3 727.912 681.93 728.897 682.56 729.882 682.875 730.891 682.875 731.922 682.875 733.641 682.228 734.981 680.933 735.944 679.638 736.906 678.269 737.25 676.825 736.975L670.466 749.625ZM663.144 735.016C663.556 735.016 663.946 734.958 664.313 734.844 664.679 734.729 664.966 734.569 665.172 734.363L666.066 733.435 666.856 734.122C667.429 734.512 668.054 734.758 668.73 734.861 669.406 734.964 670.03 735.016 670.603 735.016 671.176 735.016 671.761 734.964 672.356 734.861 672.952 734.758 673.537 734.512 674.11 734.122L674.935 733.435 675.794 734.363C676 734.569 676.292 734.729 676.67 734.844 677.049 734.958 677.432 735.016 677.822 735.016 678.601 735.016 679.294 734.701 679.902 734.07 680.509 733.44 680.813 732.724 680.813 731.922 680.813 731.212 680.595 730.593 680.16 730.066 679.724 729.539 679.105 729.206 678.303 729.069L677.1 728.897 677.031 727.556C676.779 725.746 676.075 724.274 674.917 723.139 673.76 722.005 672.288 721.438 670.5 721.438 668.713 721.438 667.235 722.005 666.066 723.139 664.897 724.274 664.198 725.746 663.969 727.556L663.866 728.897 662.663 729.172C661.975 729.355 661.391 729.682 660.91 730.152 660.428 730.621 660.188 731.212 660.188 731.922 660.188 732.724 660.491 733.44 661.099 734.07 661.706 734.701 662.388 735.016 663.144 735.016ZM670.466 744.95 674.866 736.288 674.66 736.081C674.018 736.425 673.325 736.677 672.58 736.838 671.835 736.998 671.176 737.078 670.603 737.078 669.87 737.078 669.125 736.998 668.369 736.838 667.613 736.677 666.948 736.425 666.375 736.081L666.169 736.253 670.466 744.95Z" fill="#EA33F7"/></g></g></g></g></svg>