<svg width="40" height="48" xmlns="http://www.w3.org/2000/svg" xmlns:xlink="http://www.w3.org/1999/xlink" xml:space="preserve" overflow="hidden"><g transform="translate(-2056 -714)"><path d="M2089.51 720.208C2097.12 727.819 2097.12 740.158 2089.51 747.769 2084.92 752.362 2080.32 756.956 2075.73 761.549 2071.13 756.956 2066.54 752.362 2061.95 747.769 2054.34 740.158 2054.34 727.819 2061.95 720.208 2069.56 712.598 2081.9 712.598 2089.51 720.208Z" fill="#FFFFFF" fill-rule="evenodd"/><g><g><g><path d="M10.9313-8.07812 14.9875-8.07812 14.9875-9.38438 12.2375-9.38438 12.2375-10.9656 14.9875-10.9656 14.9875-15.0219 10.9313-15.0219 10.9313-13.7156 13.6813-13.7156 13.6813-12.2719 10.9313-12.2719 10.9313-8.07812ZM20.7625-8.07812 22.0688-8.07812 22.0688-15.0219 20.7625-15.0219 20.7625-12.2719 19.3188-12.2719 19.3188-15.0219 18.0125-15.0219 18.0125-10.9656 20.7625-10.9656 20.7625-8.07812ZM28.875-17.8406 28.875-6.1875C28.875-5.6375 28.6688-5.15625 28.2563-4.74375 27.8438-4.33125 27.3625-4.125 26.8125-4.125L6.15313-4.125C5.60313-4.125 5.12188-4.33125 4.70937-4.74375 4.29688-5.15625 4.09063-5.6375 4.09063-6.1875L4.09063-17.8406C3.44896-18.3906 3.025-19.0667 2.81875-19.8687 2.6125-20.6708 2.63542-21.4729 2.8875-22.275L4.36562-26.9156C4.54896-27.5344 4.86979-28.0156 5.32812-28.3594 5.78646-28.7031 6.31354-28.875 6.90938-28.875L25.9188-28.875C26.5604-28.875 27.1219-28.6974 27.6031-28.3422 28.0844-27.987 28.4167-27.5115 28.6-26.9156L30.1125-22.275C30.3646-21.4729 30.3818-20.6708 30.1641-19.8687 29.9464-19.0667 29.5167-18.3906 28.875-17.8406ZM19.5938-18.9062C20.2583-18.9062 20.8198-19.124 21.2781-19.5594 21.7365-19.9948 21.9198-20.5219 21.8281-21.1406L20.9688-26.8125 17.5312-26.8125 17.5312-21.1406C17.5312-20.5448 17.726-20.0234 18.1156-19.5766 18.5052-19.1297 18.9979-18.9062 19.5938-18.9062ZM13.1656-18.9062C13.8073-18.9062 14.3516-19.124 14.7984-19.5594 15.2453-19.9948 15.4688-20.5219 15.4688-21.1406L15.4688-26.8125 12.0312-26.8125 11.1719-21.1406C11.0802-20.5448 11.2406-20.0234 11.6531-19.5766 12.0656-19.1297 12.5698-18.9062 13.1656-18.9062ZM6.90938-18.9062C7.45938-18.9062 7.9349-19.0953 8.33594-19.4734 8.73698-19.8516 8.97188-20.3156 9.04063-20.8656L9.93437-26.8125 6.49688-26.8125 4.91563-21.7938C4.68646-21.0833 4.77813-20.4245 5.19063-19.8172 5.60313-19.2099 6.17604-18.9062 6.90938-18.9062ZM26.0562-18.9062C26.7896-18.9062 27.3682-19.2042 27.7922-19.8 28.2161-20.3958 28.3135-21.0604 28.0844-21.7938L26.5031-26.8125 23.0656-26.8125 23.9594-20.8656C24.0281-20.3156 24.263-19.8516 24.6641-19.4734 25.0651-19.0953 25.5292-18.9062 26.0562-18.9062ZM6.15313-6.1875 26.8125-6.1875 26.8125-16.8781C26.8354-16.8552 26.7609-16.8438 26.5891-16.8438L26.0562-16.8438C25.4833-16.8438 24.9391-16.9641 24.4234-17.2047 23.9078-17.4453 23.3979-17.8177 22.8938-18.3219 22.5271-17.8635 22.0688-17.5026 21.5188-17.2391 20.9688-16.9755 20.3615-16.8438 19.6969-16.8438 19.0094-16.8438 18.4193-16.9411 17.9266-17.1359 17.4339-17.3307 16.9583-17.6573 16.5-18.1156 16.1562-17.7031 15.7208-17.388 15.1938-17.1703 14.6667-16.9526 14.0708-16.8438 13.4062-16.8438 12.6958-16.8438 12.0656-16.9698 11.5156-17.2219 10.9656-17.474 10.4958-17.8406 10.1062-18.3219 9.55625-17.8406 9.01771-17.474 8.49063-17.2219 7.96354-16.9698 7.43646-16.8438 6.90938-16.8438L6.44531-16.8438C6.29635-16.8438 6.19896-16.8552 6.15313-16.8781L6.15313-6.1875ZM26.8125-6.1875 6.15313-6.1875 26.8125-6.1875Z" fill="#4B77D1" transform="matrix(1.0303 0 0 1 2059 751)"/></g></g></g></g></svg>