<svg width="62" height="66" xmlns="http://www.w3.org/2000/svg" xmlns:xlink="http://www.w3.org/1999/xlink" xml:space="preserve" overflow="hidden"><defs><filter id="fx0" x="-10%" y="-10%" width="120%" height="120%" filterUnits="userSpaceOnUse" primitiveUnits="userSpaceOnUse"><feComponentTransfer color-interpolation-filters="sRGB"><feFuncR type="discrete" tableValues="0 0"/><feFuncG type="discrete" tableValues="0 0"/><feFuncB type="discrete" tableValues="0 0"/><feFuncA type="linear" slope="1" intercept="0"/></feComponentTransfer><feGaussianBlur stdDeviation="6.11111 6.11111"/></filter><clipPath id="clip1"><rect x="389" y="206" width="62" height="66"/></clipPath></defs><g clip-path="url(#clip1)" transform="translate(-389 -206)"><g filter="url(#fx0)" transform="translate(388 205)"><g><path d="M40.2917 23.351C44.858 27.9173 44.858 35.3209 40.2917 39.8872 37.5356 42.6433 34.7796 45.3993 32.0235 48.1554 29.2675 45.3993 26.5114 42.6433 23.7554 39.8872 19.189 35.3209 19.189 27.9173 23.7554 23.351 28.3218 18.7846 35.7253 18.7846 40.2917 23.351Z" fill="#FFFFFF" fill-rule="evenodd"/><g><g><g><path d="M3.3-2.475 3.3-3.7125 16.5-3.7125 16.5-2.475 3.3-2.475ZM6.41438-5.3625C5.54813-5.3625 4.81249-5.66156 4.2075-6.25969 3.60251-6.85781 3.3-7.59 3.3-8.45625L3.3-17.325 16.9125-17.325C17.2528-17.325 17.5442-17.2039 17.7866-16.9616 18.0289-16.7192 18.15-16.4278 18.15-16.0875L18.15-12.7875C18.15-12.4472 18.0289-12.1559 17.7866-11.9136 17.5442-11.6712 17.2528-11.55 16.9125-11.55L14.9325-11.55 14.9325-8.45625C14.9325-7.59 14.63-6.85781 14.025-6.25969 13.42-5.66156 12.6844-5.3625 11.8181-5.3625L6.41438-5.3625ZM6.41438-6.6 11.8177-6.6C12.313-6.6 12.7497-6.78907 13.1278-7.16719 13.5059-7.54531 13.695-7.97501 13.695-8.45625L13.695-16.0875 4.5375-16.0875 4.5375-8.45625C4.5375-7.97501 4.72999-7.54531 5.115-7.16719 5.50001-6.78907 5.93313-6.6 6.41438-6.6ZM14.9325-12.7875 16.9125-12.7875 16.9125-16.0875 14.9325-16.0875 14.9325-12.7875ZM6.41438-6.6 4.5375-6.6 13.695-6.6 6.41438-6.6Z" fill="#A96424" transform="matrix(1.0303 0 0 1 21.8093 42.0204)"/></g></g></g></g></g><path d="M433.804 216.884C441.414 224.495 441.414 236.834 433.804 244.445 429.21 249.038 424.617 253.631 420.024 258.225 415.43 253.631 410.837 249.038 406.243 244.445 398.633 236.834 398.633 224.495 406.243 216.884 413.854 209.274 426.193 209.274 433.804 216.884Z" fill="#FFFFFF" fill-rule="evenodd"/><g><g><g><path d="M5.5-4.125 5.5-6.1875 27.5-6.1875 27.5-4.125 5.5-4.125ZM10.6906-8.9375C9.24687-8.9375 8.02082-9.43594 7.0125-10.4328 6.00418-11.4297 5.5-12.65 5.5-14.0938L5.5-28.875 28.1875-28.875C28.7547-28.875 29.2403-28.6731 29.6443-28.2693 30.0481-27.8653 30.25-27.3797 30.25-26.8125L30.25-21.3125C30.25-20.7453 30.0481-20.2598 29.6443-19.856 29.2403-19.452 28.7547-19.25 28.1875-19.25L24.8875-19.25 24.8875-14.0938C24.8875-12.65 24.3833-11.4297 23.375-10.4328 22.3667-9.43594 21.1406-8.9375 19.6969-8.9375L10.6906-8.9375ZM10.6906-11 19.6962-11C20.5216-11 21.2495-11.3151 21.8797-11.9453 22.5099-12.5755 22.825-13.2917 22.825-14.0938L22.825-26.8125 7.5625-26.8125 7.5625-14.0938C7.5625-13.2917 7.88332-12.5755 8.525-11.9453 9.16668-11.3151 9.88855-11 10.6906-11ZM24.8875-21.3125 28.1875-21.3125 28.1875-26.8125 24.8875-26.8125 24.8875-21.3125ZM10.6906-11 7.5625-11 22.825-11 10.6906-11Z" fill="#A96424" transform="matrix(1.0303 0 0 1 403 248)"/></g></g></g></g></svg>