<svg width="40" height="48" xmlns="http://www.w3.org/2000/svg" xmlns:xlink="http://www.w3.org/1999/xlink" xml:space="preserve" overflow="hidden"><g transform="translate(-1706 -714)"><path d="M1739.49 720.209C1747.1 727.819 1747.1 740.159 1739.49 747.769 1734.9 752.363 1730.31 756.956 1725.71 761.55 1721.12 756.956 1716.53 752.363 1711.93 747.769 1704.32 740.159 1704.32 727.819 1711.93 720.209 1719.54 712.598 1731.88 712.598 1739.49 720.209Z" fill="#FFFFFF" fill-rule="evenodd"/><g><g><g><path d="M1718.8 748.25 1718.8 735.6C1717.61 735.348 1716.59 734.746 1715.75 733.795 1714.92 732.844 1714.5 731.704 1714.5 730.375L1714.5 720.75 1716.56 720.75 1716.56 730.375 1718.8 730.375 1718.8 720.75 1720.86 720.75 1720.86 730.375 1723.09 730.375 1723.09 720.75 1725.16 720.75 1725.16 730.375C1725.16 731.704 1724.74 732.844 1723.9 733.795 1723.07 734.746 1722.05 735.348 1720.86 735.6L1720.86 748.25 1718.8 748.25ZM1733.06 748.25 1733.06 737.25 1729.11 737.25 1729.11 726.766C1729.11 724.955 1729.66 723.5 1730.76 722.4 1731.86 721.3 1733.31 720.75 1735.13 720.75L1735.13 748.25 1733.06 748.25Z" fill="#7F7F7F"/></g></g></g></g></svg>