<svg width="40" height="48" xmlns="http://www.w3.org/2000/svg" xmlns:xlink="http://www.w3.org/1999/xlink" xml:space="preserve" overflow="hidden"><g transform="translate(-1001 -723)"><path d="M1034.43 728.745C1042.04 736.356 1042.04 748.695 1034.43 756.306 1029.84 760.899 1025.24 765.493 1020.65 770.086 1016.05 765.493 1011.46 760.899 1006.87 756.306 999.258 748.695 999.258 736.356 1006.87 728.745 1014.48 721.135 1026.82 721.135 1034.43 728.745Z" fill="#FFFFFF" fill-rule="evenodd"/><g><g><g><path d="M26.8333-8.69999C27.4333-8.38888 27.9389-8.48888 28.35-8.99999 28.7611-9.5111 28.8111-10.0444 28.5-10.6L26.1333-15.0667 24.3333-10.1667 26.8333-8.69999ZM19.7666-10.1 22.1-10.1 25.3333-18.1666C25.4666-18.4778 25.5166-18.7833 25.4833-19.0833 25.45-19.3833 25.2666-19.6111 24.9333-19.7666L22.1666-20.9666C21.8555-21.1222 21.5444-21.1222 21.2333-20.9666 20.9222-20.8111 20.7555-20.5778 20.7333-20.2666L19.7666-10.1ZM9.89999-10.1 12.2-10.1 11.2667-20.2666C11.2444-20.6 11.0944-20.8444 10.8167-21 10.5389-21.1555 10.2111-21.1444 9.83332-20.9666L7.19999-19.8333C6.9111-19.7222 6.74999-19.4722 6.71666-19.0833 6.68333-18.6944 6.72222-18.3444 6.83333-18.0333L9.89999-10.1ZM5.16666-8.69999 7.66666-10.1667 5.86666-15.0667 3.5-10.4333C3.18889-9.8111 3.25555-9.30554 3.7-8.91666 4.14444-8.52777 4.63333-8.45555 5.16666-8.69999ZM14.2-10.1 17.7666-10.1 18.8666-22.2333C18.9111-22.5444 18.8278-22.8055 18.6166-23.0166 18.4055-23.2278 18.1444-23.3333 17.8333-23.3333L14.1667-23.3333C13.8111-23.3333 13.5444-23.2278 13.3667-23.0166 13.1889-22.8055 13.1111-22.5444 13.1333-22.2333L14.2-10.1ZM4.43333-6.66666C3.56666-6.66666 2.83333-6.97777 2.23333-7.59999 1.63333-8.22221 1.33333-8.96666 1.33333-9.83332 1.33333-10.1 1.38333-10.3611 1.48333-10.6167 1.58333-10.8722 1.68889-11.1222 1.8-11.3667L4.86666-17.3333C4.53333-18.2 4.5-19.0611 4.76666-19.9166 5.03333-20.7722 5.56666-21.3778 6.36666-21.7333L9.13332-22.8666C9.48888-23 9.84999-23.0778 10.2167-23.1 10.5833-23.1222 10.9222-23.0333 11.2333-22.8333 11.4111-23.5444 11.7667-24.1389 12.3-24.6166 12.8333-25.0944 13.4555-25.3333 14.1667-25.3333L17.8333-25.3333C18.5444-25.3333 19.1666-25.1111 19.7-24.6666 20.2333-24.2222 20.5889-23.6555 20.7666-22.9666 21.1-23.1 21.4444-23.1555 21.8-23.1333 22.1555-23.1111 22.5-23.0222 22.8333-22.8666L25.6333-21.7333C26.4555-21.4222 27.0055-20.8444 27.2833-20 27.5611-19.1555 27.5111-18.3333 27.1333-17.5333L30.2-11.4C30.2889-11.1555 30.3889-10.9167 30.5-10.6833 30.6111-10.45 30.6666-10.2111 30.6666-9.96666 30.6666-9.03332 30.3333-8.24999 29.6666-7.61666 29-6.98333 28.2-6.66666 27.2666-6.66666 27.0222-6.66666 26.7944-6.71666 26.5833-6.81666 26.3722-6.91666 26.1555-7.0111 25.9333-7.09999L23.9-8.09999 8.06666-8.09999 6.13333-7.09999C5.86666-6.98888 5.59444-6.88888 5.31666-6.79999 5.03888-6.7111 4.74444-6.66666 4.43333-6.66666Z" fill="#A96424" transform="matrix(1.0625 0 0 1 1004 757)"/></g></g></g></g></svg>