<svg width="40" height="48" xmlns="http://www.w3.org/2000/svg" xmlns:xlink="http://www.w3.org/1999/xlink" xml:space="preserve" overflow="hidden"><g transform="translate(-1703 -201)"><path d="M1737.13 207.163C1744.74 214.773 1744.74 227.113 1737.13 234.723 1732.54 239.317 1727.94 243.91 1723.35 248.503 1718.76 243.91 1714.16 239.317 1709.57 234.723 1701.96 227.113 1701.96 214.773 1709.57 207.163 1717.18 199.552 1729.52 199.552 1737.13 207.163Z" fill="#FFFFFF" fill-rule="evenodd"/><g><g><g><path d="M1727.08 219.744C1726.64 219.744 1726.27 219.595 1725.98 219.297 1725.68 218.999 1725.53 218.632 1725.53 218.197 1725.53 217.761 1725.68 217.395 1725.98 217.097 1726.27 216.799 1726.64 216.65 1727.08 216.65 1727.51 216.65 1727.88 216.799 1728.18 217.097 1728.47 217.395 1728.62 217.761 1728.62 218.197 1728.62 218.632 1728.47 218.999 1728.18 219.297 1727.88 219.595 1727.51 219.744 1727.08 219.744ZM1719.89 219.744C1719.46 219.744 1719.09 219.595 1718.79 219.297 1718.49 218.999 1718.34 218.632 1718.34 218.197 1718.34 217.761 1718.49 217.395 1718.79 217.097 1719.09 216.799 1719.46 216.65 1719.89 216.65 1720.33 216.65 1720.69 216.799 1720.99 217.097 1721.29 217.395 1721.44 217.761 1721.44 218.197 1721.44 218.632 1721.29 218.999 1720.99 219.297 1720.69 219.595 1720.33 219.744 1719.89 219.744ZM1723.5 227.169C1722.22 227.169 1721.05 226.825 1719.99 226.137 1718.94 225.45 1718.11 224.545 1717.52 223.422L1729.48 223.422C1728.89 224.545 1728.06 225.45 1727.01 226.137 1725.95 226.825 1724.78 227.169 1723.5 227.169ZM1723.5 232.875C1721.8 232.875 1720.21 232.548 1718.7 231.895 1717.2 231.242 1715.89 230.354 1714.77 229.231 1713.65 228.108 1712.76 226.796 1712.1 225.295 1711.45 223.794 1711.13 222.196 1711.13 220.5 1711.13 218.804 1711.45 217.206 1712.1 215.705 1712.76 214.203 1713.65 212.892 1714.77 211.769 1715.89 210.646 1717.2 209.758 1718.7 209.105 1720.21 208.451 1721.8 208.125 1723.5 208.125 1725.2 208.125 1726.79 208.451 1728.3 209.105 1729.8 209.758 1731.11 210.646 1732.23 211.769 1733.35 212.892 1734.24 214.203 1734.9 215.705 1735.55 217.206 1735.88 218.804 1735.88 220.5 1735.88 222.196 1735.55 223.794 1734.9 225.295 1734.24 226.796 1733.35 228.108 1732.23 229.231 1731.11 230.354 1729.8 231.242 1728.3 231.895 1726.79 232.548 1725.2 232.875 1723.5 232.875ZM1723.5 230.812C1726.32 230.812 1728.74 229.81 1730.77 227.805 1732.8 225.799 1733.81 223.387 1733.81 220.569 1733.81 217.75 1732.82 215.286 1730.82 213.178 1728.83 211.07 1726.36 210.015 1723.43 210.015L1722.81 210.015C1722.65 210.015 1722.45 210.027 1722.19 210.05 1722.15 210.233 1722.11 210.451 1722.07 210.703 1722.04 210.955 1722.02 211.173 1722.02 211.356 1722.02 211.929 1722.21 212.405 1722.59 212.783 1722.97 213.161 1723.44 213.35 1724.02 213.35 1724.29 213.35 1724.52 213.333 1724.7 213.298 1724.89 213.264 1725.06 213.247 1725.22 213.247 1725.45 213.247 1725.64 213.304 1725.8 213.419 1725.96 213.533 1726.04 213.705 1726.04 213.934 1726.04 214.301 1725.87 214.582 1725.53 214.776 1725.18 214.971 1724.68 215.069 1724.02 215.069 1722.96 215.069 1722.08 214.713 1721.37 214.003 1720.66 213.293 1720.3 212.41 1720.3 211.356 1720.3 211.242 1720.31 211.093 1720.32 210.909 1720.33 210.726 1720.36 210.577 1720.41 210.462 1718.32 211.219 1716.6 212.479 1715.23 214.244 1713.87 216.008 1713.19 218.071 1713.19 220.431 1713.19 223.25 1714.2 225.685 1716.23 227.736 1718.26 229.787 1720.68 230.812 1723.5 230.812Z" fill="#4EA72E"/></g></g></g></g></svg>