<svg width="40" height="49" xmlns="http://www.w3.org/2000/svg" xmlns:xlink="http://www.w3.org/1999/xlink" xml:space="preserve" overflow="hidden"><g transform="translate(-2406 -706)"><path d="M2439.52 712.703C2447.13 720.314 2447.13 732.653 2439.52 740.264 2434.93 744.857 2430.34 749.451 2425.74 754.044 2421.15 749.451 2416.56 744.857 2411.96 740.264 2404.35 732.653 2404.35 720.314 2411.96 712.703 2419.57 705.093 2431.91 705.093 2439.52 712.703Z" fill="#FFFFFF" fill-rule="evenodd"/><g><g><g><path d="M2422.86 733.866 2426.5 731.184 2430.04 733.866 2428.56 729.534 2432.21 726.922 2427.81 726.922 2426.5 722.625 2425.19 726.922 2420.79 726.922 2424.37 729.534 2422.86 733.866ZM2426.5 743.216C2423.29 742.413 2420.66 740.552 2418.59 737.63 2416.53 734.708 2415.5 731.505 2415.5 728.022L2415.5 719.841 2426.5 715.716 2437.5 719.841 2437.5 728.022C2437.5 731.505 2436.47 734.708 2434.41 737.63 2432.34 740.552 2429.71 742.413 2426.5 743.216ZM2426.5 741.084C2429.14 740.214 2431.28 738.569 2432.95 736.151 2434.61 733.734 2435.44 731.024 2435.44 728.022L2435.44 721.284 2426.5 717.916 2417.56 721.284 2417.56 728.022C2417.56 731.024 2418.39 733.734 2420.05 736.151 2421.72 738.569 2423.86 740.214 2426.5 741.084Z" fill="#0000F5"/></g></g></g></g></svg>