<svg width="61" height="66" xmlns="http://www.w3.org/2000/svg" xmlns:xlink="http://www.w3.org/1999/xlink" xml:space="preserve" overflow="hidden"><defs><filter id="fx0" x="-10%" y="-10%" width="120%" height="120%" filterUnits="userSpaceOnUse" primitiveUnits="userSpaceOnUse"><feComponentTransfer color-interpolation-filters="sRGB"><feFuncR type="discrete" tableValues="0 0"/><feFuncG type="discrete" tableValues="0 0"/><feFuncB type="discrete" tableValues="0 0"/><feFuncA type="linear" slope="1" intercept="0"/></feComponentTransfer><feGaussianBlur stdDeviation="6.11111 6.11111"/></filter><clipPath id="clip1"><rect x="506" y="130" width="61" height="66"/></clipPath></defs><g clip-path="url(#clip1)" transform="translate(-506 -130)"><g filter="url(#fx0)" transform="translate(505 129)"><g><path d="M39.7682 22.9594C44.3345 27.5258 44.3345 34.9293 39.7682 39.4957 37.0121 42.2517 34.2561 45.0078 31.5 47.7638 28.744 45.0078 25.9879 42.2517 23.2319 39.4957 18.6655 34.9293 18.6655 27.5258 23.2319 22.9594 27.7983 18.393 35.2018 18.393 39.7682 22.9594Z" fill="#FFFFFF" fill-rule="evenodd"/><g><g><g><path d="M24.9187 39.1638 24.9187 37.7013 26.4056 37.7013 28.4531 30.9495C28.5506 30.6407 28.7253 30.3889 28.9771 30.1939 29.229 29.9989 29.5175 29.9014 29.8424 29.9014L33.1574 29.9014C33.4824 29.9014 33.7709 29.9989 34.0227 30.1939 34.2746 30.3889 34.4493 30.6407 34.5468 30.9495L36.5943 37.7013 38.0812 37.7013 38.0812 39.1638 24.9187 39.1638ZM27.9656 37.7013 35.0343 37.7013 33.1331 31.3639 29.8668 31.3639 27.9656 37.7013ZM30.7687 26.9764 30.7687 22.5889 32.2312 22.5889 32.2312 26.9764 30.7687 26.9764ZM36.4968 29.3651 35.4487 28.317 38.5687 25.2214 39.5924 26.2451 36.4968 29.3651ZM37.8374 34.0451 37.8374 32.5826 42.2249 32.5826 42.2249 34.0451 37.8374 34.0451ZM26.5031 29.3651 23.4075 26.2451 24.4312 25.2214 27.5512 28.317 26.5031 29.3651ZM20.775 34.0451 20.775 32.5826 25.1625 32.5826 25.1625 34.0451 20.775 34.0451Z" fill="#EA3323"/></g></g></g></g></g><path d="M550.28 140.493C557.891 148.103 557.891 160.442 550.28 168.053 545.687 172.646 541.094 177.24 536.5 181.833 531.907 177.24 527.313 172.646 522.72 168.053 515.109 160.442 515.109 148.103 522.72 140.493 530.33 132.882 542.67 132.882 550.28 140.493Z" fill="#FFFFFF" fill-rule="evenodd"/><g><g><g><path d="M525.531 167.5 525.531 165.062 528.009 165.062 531.422 153.809C531.584 153.295 531.875 152.875 532.295 152.55 532.715 152.225 533.196 152.063 533.737 152.063L539.262 152.063C539.804 152.063 540.285 152.225 540.705 152.55 541.124 152.875 541.416 153.295 541.578 153.809L544.99 165.062 547.469 165.062 547.469 167.5 525.531 167.5ZM530.609 165.062 542.391 165.062 539.222 154.5 533.778 154.5 530.609 165.062ZM535.281 147.188 535.281 139.875 537.719 139.875 537.719 147.188 535.281 147.188ZM544.828 151.169 543.081 149.422 548.281 144.263 549.987 145.969 544.828 151.169ZM547.062 158.969 547.062 156.531 554.375 156.531 554.375 158.969 547.062 158.969ZM528.172 151.169 523.012 145.969 524.719 144.263 529.919 149.422 528.172 151.169ZM518.625 158.969 518.625 156.531 525.937 156.531 525.937 158.969 518.625 158.969Z" fill="#EA3323"/></g></g></g></g></svg>