<svg width="61" height="66" xmlns="http://www.w3.org/2000/svg" xmlns:xlink="http://www.w3.org/1999/xlink" xml:space="preserve" overflow="hidden"><defs><filter id="fx0" x="-10%" y="-10%" width="120%" height="120%" filterUnits="userSpaceOnUse" primitiveUnits="userSpaceOnUse"><feComponentTransfer color-interpolation-filters="sRGB"><feFuncR type="discrete" tableValues="0 0"/><feFuncG type="discrete" tableValues="0 0"/><feFuncB type="discrete" tableValues="0 0"/><feFuncA type="linear" slope="1" intercept="0"/></feComponentTransfer><feGaussianBlur stdDeviation="6.11111 6.11111"/></filter><clipPath id="clip1"><rect x="503" y="276" width="61" height="66"/></clipPath></defs><g clip-path="url(#clip1)" transform="translate(-503 -276)"><g filter="url(#fx0)" transform="translate(502 274)"><g><path d="M39.9464 23.8707C44.5128 28.4371 44.5128 35.8407 39.9464 40.407 37.1904 43.1631 34.4343 45.9191 31.6783 48.6752 28.9222 45.9191 26.1662 43.1631 23.4101 40.407 18.8438 35.8407 18.8438 28.4371 23.4101 23.8707 27.9765 19.3044 35.38 19.3044 39.9464 23.8707Z" fill="#FFFFFF" fill-rule="evenodd"/><g><g><g><path d="M33.7163 31.2746C33.4551 31.2746 33.2351 31.1852 33.0563 31.0065 32.8776 30.8277 32.7882 30.6077 32.7882 30.3465 32.7882 30.0852 32.8776 29.8652 33.0563 29.6865 33.2351 29.5077 33.4551 29.4183 33.7163 29.4183 33.9776 29.4183 34.1976 29.5077 34.3763 29.6865 34.5551 29.8652 34.6445 30.0852 34.6445 30.3465 34.6445 30.6077 34.5551 30.8277 34.3763 31.0065 34.1976 31.1852 33.9776 31.2746 33.7163 31.2746ZM29.4057 31.2746C29.1444 31.2746 28.9245 31.1852 28.7457 31.0065 28.5669 30.8277 28.4776 30.6077 28.4776 30.3465 28.4776 30.0852 28.5669 29.8652 28.7457 29.6865 28.9245 29.5077 29.1444 29.4183 29.4057 29.4183 29.667 29.4183 29.8869 29.5077 30.0657 29.6865 30.2445 29.8652 30.3338 30.0852 30.3338 30.3465 30.3338 30.6077 30.2445 30.8277 30.0657 31.0065 29.8869 31.1852 29.667 31.2746 29.4057 31.2746ZM31.5713 35.7296C30.8013 35.7296 30.1001 35.5233 29.4676 35.1108 28.8351 34.6983 28.3401 34.1552 27.9826 33.4815L35.1601 33.4815C34.8026 34.1552 34.3076 34.6983 33.6751 35.1108 33.0426 35.5233 32.3413 35.7296 31.5713 35.7296ZM31.5713 39.1533C30.5538 39.1533 29.5948 38.9574 28.6941 38.5655 27.7935 38.1736 27.0063 37.6408 26.3326 36.9671 25.6588 36.2933 25.126 35.5061 24.7341 34.6055 24.3423 33.7049 24.1463 32.7458 24.1463 31.7283 24.1463 30.7108 24.3423 29.7518 24.7341 28.8511 25.126 27.9505 25.6588 27.1633 26.3326 26.4896 27.0063 25.8158 27.7935 25.283 28.6941 24.8911 29.5948 24.4993 30.5538 24.3033 31.5713 24.3033 32.5888 24.3033 33.5479 24.4993 34.4485 24.8911 35.3491 25.283 36.1363 25.8158 36.8101 26.4896 37.4838 27.1633 38.0166 27.9505 38.4085 28.8511 38.8004 29.7518 38.9963 30.7108 38.9963 31.7283 38.9963 32.7458 38.8004 33.7049 38.4085 34.6055 38.0166 35.5061 37.4838 36.2933 36.8101 36.9671 36.1363 37.6408 35.3491 38.1736 34.4485 38.5655 33.5479 38.9574 32.5888 39.1533 31.5713 39.1533ZM31.5713 37.9158C33.2626 37.9158 34.7166 37.3143 35.9335 36.1111 37.1504 34.908 37.7588 33.4608 37.7588 31.7696 37.7588 30.0783 37.1607 28.6002 35.9645 27.3352 34.7682 26.0702 33.2901 25.4377 31.5301 25.4377L31.1588 25.4377C31.0626 25.4377 30.9388 25.4446 30.7876 25.4583 30.7601 25.5683 30.736 25.699 30.7154 25.8502 30.6948 26.0014 30.6845 26.1321 30.6845 26.2421 30.6845 26.5858 30.7979 26.8711 31.0248 27.098 31.2516 27.3249 31.5369 27.4383 31.8807 27.4383 32.0457 27.4383 32.1832 27.428 32.2932 27.4074 32.4032 27.3868 32.5063 27.3764 32.6026 27.3764 32.7401 27.3764 32.8569 27.4108 32.9532 27.4796 33.0495 27.5483 33.0976 27.6514 33.0976 27.789 33.0976 28.009 32.9945 28.1774 32.7882 28.2943 32.582 28.4111 32.2794 28.4696 31.8807 28.4696 31.2482 28.4696 30.7188 28.2565 30.2926 27.8302 29.8663 27.4039 29.6532 26.8746 29.6532 26.2421 29.6532 26.1733 29.6566 26.0839 29.6635 25.9739 29.6704 25.864 29.6876 25.7746 29.7151 25.7058 28.4638 26.1596 27.4291 26.9158 26.611 27.9746 25.7929 29.0333 25.3838 30.2708 25.3838 31.6871 25.3838 33.3783 25.9923 34.8393 27.2091 36.0699 28.426 37.3005 29.8801 37.9158 31.5713 37.9158Z" fill="#4EA72E"/></g></g></g></g></g><path d="M547.459 286.404C555.069 294.015 555.069 306.354 547.459 313.964 542.865 318.558 538.272 323.151 533.678 327.745 529.085 323.151 524.492 318.558 519.898 313.964 512.287 306.354 512.287 294.015 519.898 286.404 527.509 278.793 539.848 278.793 547.459 286.404Z" fill="#FFFFFF" fill-rule="evenodd"/><g><g><g><path d="M537.075 298.744C536.64 298.744 536.273 298.595 535.975 298.297 535.677 297.999 535.528 297.632 535.528 297.197 535.528 296.761 535.677 296.395 535.975 296.097 536.273 295.799 536.64 295.65 537.075 295.65 537.51 295.65 537.877 295.799 538.175 296.097 538.473 296.395 538.622 296.761 538.622 297.197 538.622 297.632 538.473 297.999 538.175 298.297 537.877 298.595 537.51 298.744 537.075 298.744ZM529.891 298.744C529.455 298.744 529.089 298.595 528.791 298.297 528.493 297.999 528.344 297.632 528.344 297.197 528.344 296.761 528.493 296.395 528.791 296.097 529.089 295.799 529.455 295.65 529.891 295.65 530.326 295.65 530.693 295.799 530.991 296.097 531.289 296.395 531.438 296.761 531.438 297.197 531.438 297.632 531.289 297.999 530.991 298.297 530.693 298.595 530.326 298.744 529.891 298.744ZM533.5 306.169C532.217 306.169 531.048 305.825 529.994 305.137 528.94 304.45 528.115 303.545 527.519 302.422L539.481 302.422C538.885 303.545 538.06 304.45 537.006 305.137 535.952 305.825 534.783 306.169 533.5 306.169ZM533.5 311.875C531.804 311.875 530.206 311.548 528.705 310.895 527.204 310.242 525.892 309.354 524.769 308.231 523.646 307.108 522.758 305.796 522.105 304.295 521.452 302.794 521.125 301.196 521.125 299.5 521.125 297.804 521.452 296.206 522.105 294.705 522.758 293.204 523.646 291.892 524.769 290.769 525.892 289.646 527.204 288.758 528.705 288.105 530.206 287.451 531.804 287.125 533.5 287.125 535.196 287.125 536.794 287.451 538.295 288.105 539.796 288.758 541.108 289.646 542.231 290.769 543.354 291.892 544.242 293.204 544.895 294.705 545.548 296.206 545.875 297.804 545.875 299.5 545.875 301.196 545.548 302.794 544.895 304.295 544.242 305.796 543.354 307.108 542.231 308.231 541.108 309.354 539.796 310.242 538.295 310.895 536.794 311.548 535.196 311.875 533.5 311.875ZM533.5 309.812C536.319 309.812 538.742 308.81 540.77 306.805 542.798 304.799 543.812 302.387 543.812 299.569 543.812 296.75 542.816 294.286 540.822 292.178 538.828 290.07 536.365 289.016 533.431 289.016L532.812 289.016C532.652 289.016 532.446 289.027 532.194 289.05 532.148 289.233 532.108 289.451 532.073 289.703 532.039 289.955 532.022 290.173 532.022 290.356 532.022 290.929 532.211 291.405 532.589 291.783 532.967 292.161 533.443 292.35 534.016 292.35 534.291 292.35 534.52 292.333 534.703 292.298 534.886 292.264 535.058 292.247 535.219 292.247 535.448 292.247 535.643 292.304 535.803 292.419 535.964 292.533 536.044 292.705 536.044 292.934 536.044 293.301 535.872 293.582 535.528 293.776 535.184 293.971 534.68 294.069 534.016 294.069 532.961 294.069 532.079 293.713 531.369 293.003 530.658 292.293 530.303 291.41 530.303 290.356 530.303 290.242 530.309 290.093 530.32 289.909 530.332 289.726 530.36 289.577 530.406 289.462 528.321 290.219 526.596 291.479 525.233 293.244 523.869 295.008 523.188 297.071 523.188 299.431 523.188 302.25 524.202 304.685 526.23 306.736 528.258 308.787 530.681 309.812 533.5 309.812Z" fill="#4EA72E"/></g></g></g></g></svg>