<svg width="61" height="65" xmlns="http://www.w3.org/2000/svg" xmlns:xlink="http://www.w3.org/1999/xlink" xml:space="preserve" overflow="hidden"><defs><filter id="fx0" x="-10%" y="-10%" width="120%" height="120%" filterUnits="userSpaceOnUse" primitiveUnits="userSpaceOnUse"><feComponentTransfer color-interpolation-filters="sRGB"><feFuncR type="discrete" tableValues="0 0"/><feFuncG type="discrete" tableValues="0 0"/><feFuncB type="discrete" tableValues="0 0"/><feFuncA type="linear" slope="1" intercept="0"/></feComponentTransfer><feGaussianBlur stdDeviation="6.11111 6.11111"/></filter><clipPath id="clip1"><rect x="506" y="200" width="61" height="65"/></clipPath></defs><g clip-path="url(#clip1)" transform="translate(-506 -200)"><g filter="url(#fx0)" transform="translate(505 198)"><g><path d="M39.7682 23.7975C44.3346 28.3639 44.3346 35.7674 39.7682 40.3338 37.0122 43.0898 34.2561 45.8459 31.5001 48.6019 28.7441 45.8459 25.988 43.0898 23.232 40.3338 18.6656 35.7674 18.6656 28.3639 23.232 23.7975 27.7983 19.2311 35.2019 19.2311 39.7682 23.7975Z" fill="#FFFFFF" fill-rule="evenodd"/><g><g><g><path d="M7.47999-7.05999 9.59999-8.61999 11.66-7.05999 10.8-9.57999 12.92-11.1 10.36-11.1 9.59999-13.6 8.83999-11.1 6.27999-11.1 8.35999-9.57999 7.47999-7.05999ZM9.59999-1.62C7.73333-2.08666 6.19999-3.17 4.99999-4.87 3.8-6.56999 3.2-8.43333 3.2-10.46L3.2-15.22 9.59999-17.62 16-15.22 16-10.46C16-8.43333 15.4-6.56999 14.2-4.87 13-3.17 11.4666-2.08666 9.59999-1.62ZM9.59999-2.86C11.1333-3.36666 12.3833-4.32334 13.35-5.72999 14.3166-7.13665 14.8-8.71333 14.8-10.46L14.8-14.38 9.59999-16.34 4.4-14.38 4.4-10.46C4.4-8.71333 4.88334-7.13665 5.84999-5.72999 6.81665-4.32334 8.06665-3.36666 9.59999-2.86Z" fill="#0000F5" transform="matrix(1.03125 0 0 1 22.2001 43.3991)"/></g></g></g></g></g><path d="M550.28 210.331C557.891 217.941 557.891 230.281 550.28 237.891 545.687 242.485 541.094 247.078 536.5 251.671 531.907 247.078 527.313 242.485 522.72 237.891 515.109 230.281 515.109 217.941 522.72 210.331 530.33 202.72 542.67 202.72 550.28 210.331Z" fill="#FFFFFF" fill-rule="evenodd"/><g><g><g><path d="M12.4667-11.7667 16-14.3667 19.4333-11.7667 18-15.9667 21.5333-18.5 17.2666-18.5 16-22.6666 14.7333-18.5 10.4667-18.5 13.9333-15.9667 12.4667-11.7667ZM16-2.7C12.8889-3.47776 10.3333-5.28333 8.33332-8.11666 6.33333-10.95 5.33333-14.0556 5.33333-17.4333L5.33333-25.3666 16-29.3666 26.6666-25.3666 26.6666-17.4333C26.6666-14.0556 25.6666-10.95 23.6666-8.11666 21.6666-5.28333 19.1111-3.47776 16-2.7ZM16-4.76666C18.5555-5.61109 20.6389-7.20556 22.25-9.54999 23.8611-11.8944 24.6666-14.5222 24.6666-17.4333L24.6666-23.9666 16-27.2333 7.33333-23.9666 7.33333-17.4333C7.33333-14.5222 8.13889-11.8944 9.74999-9.54999 11.3611-7.20556 13.4444-5.61109 16-4.76666Z" fill="#0000F5" transform="matrix(1.03125 0 0 1 521 243)"/></g></g></g></g></svg>