<svg width="40" height="48" xmlns="http://www.w3.org/2000/svg" xmlns:xlink="http://www.w3.org/1999/xlink" xml:space="preserve" overflow="hidden"><g transform="translate(-401 -711)"><path d="M435.109 716.913C442.719 724.523 442.719 736.863 435.109 744.473 430.515 749.067 425.922 753.66 421.329 758.254 416.735 753.66 412.142 749.067 407.548 744.473 399.938 736.863 399.938 724.523 407.548 716.913 415.159 709.302 427.498 709.302 435.109 716.913Z" fill="#FFFFFF" fill-rule="evenodd"/><g><g><g><path d="M410.531 743.5 410.531 741.062 413.009 741.062 416.422 729.809C416.584 729.295 416.875 728.875 417.295 728.55 417.715 728.225 418.196 728.062 418.737 728.062L424.262 728.062C424.804 728.062 425.285 728.225 425.705 728.55 426.124 728.875 426.416 729.295 426.578 729.809L429.991 741.062 432.469 741.062 432.469 743.5 410.531 743.5ZM415.609 741.062 427.391 741.062 424.222 730.5 418.778 730.5 415.609 741.062ZM420.281 723.187 420.281 715.875 422.719 715.875 422.719 723.187 420.281 723.187ZM429.828 727.169 428.081 725.422 433.281 720.262 434.988 721.969 429.828 727.169ZM432.062 734.969 432.062 732.531 439.375 732.531 439.375 734.969 432.062 734.969ZM413.172 727.169 408.012 721.969 409.719 720.262 414.919 725.422 413.172 727.169ZM403.625 734.969 403.625 732.531 410.937 732.531 410.937 734.969 403.625 734.969Z" fill="#EA3323"/></g></g></g></g></svg>