<svg width="40" height="48" xmlns="http://www.w3.org/2000/svg" xmlns:xlink="http://www.w3.org/1999/xlink" xml:space="preserve" overflow="hidden"><g transform="translate(-1000 -201)"><path d="M1033.95 207.558C1041.48 215.085 1041.41 227.356 1033.8 234.967 1029.21 239.56 1024.61 244.153 1020.02 248.747 1015.48 244.204 1010.94 239.661 1006.39 235.119 998.866 227.592 998.934 215.321 1006.54 207.71 1014.16 200.099 1026.43 200.031 1033.95 207.558Z" fill="#FFFFFF" fill-rule="evenodd"/><g><g><g><path d="M18-13.875C19.2851-13.875 20.4438-14.175 21.4763-14.775 22.5088-15.375 23.3376-16.175 23.9626-17.175 23.1126-17.825 22.1848-18.3125 21.1793-18.6376 20.1741-18.9626 19.1116-19.1251 17.9918-19.1251 16.8723-19.1251 15.8125-18.9626 14.8125-18.6376 13.8125-18.3125 12.8875-17.825 12.0375-17.175 12.6625-16.175 13.4913-15.375 14.5238-14.775 15.5563-14.175 16.715-13.875 18-13.875ZM18.0034-21.3751C18.7262-21.3751 19.3438-21.6324 19.8563-22.1472 20.3688-22.6619 20.6251-23.2807 20.6251-24.0034 20.6251-24.7262 20.3677-25.3438 19.8529-25.8563 19.3382-26.3688 18.7194-26.6251 17.9967-26.6251 17.2739-26.6251 16.6563-26.3677 16.1438-25.8529 15.6313-25.3382 15.375-24.7194 15.375-23.9967 15.375-23.2739 15.6324-22.6563 16.1472-22.1438 16.6619-21.6313 17.2807-21.3751 18.0034-21.3751ZM18-5.96252C21.3251-8.98752 23.7813-11.7313 25.3688-14.1938 26.9563-16.6563 27.7501-18.8251 27.7501-20.7001 27.7501-23.6448 26.8089-26.0561 24.9267-27.9338 23.0444-29.8113 20.7356-30.7501 18-30.7501 15.2645-30.7501 12.9557-29.8113 11.0734-27.9338 9.19115-26.0561 8.25002-23.6448 8.25002-20.7001 8.25002-18.8251 9.06252-16.6563 10.6875-14.1938 12.3125-11.7313 14.75-8.98752 18-5.96252ZM18-3.00001C13.975-6.42502 10.9688-9.60628 8.98127-12.5438 6.99377-15.4813 6.00002-18.2001 6.00002-20.7001 6.00002-24.4501 7.20627-27.4376 9.61878-29.6626 12.0313-31.8876 14.825-33.0001 18-33.0001 21.1751-33.0001 23.9688-31.8876 26.3813-29.6626 28.7938-27.4376 30.0001-24.4501 30.0001-20.7001 30.0001-18.2001 29.0063-15.4813 27.0188-12.5438 25.0313-9.60628 22.0251-6.42502 18-3.00001Z" fill="#BB271A" transform="matrix(1.02778 0 0 1 1002 241)"/></g></g></g></g></svg>