<svg width="61" height="66" xmlns="http://www.w3.org/2000/svg" xmlns:xlink="http://www.w3.org/1999/xlink" xml:space="preserve" overflow="hidden"><defs><filter id="fx0" x="-10%" y="-10%" width="120%" height="120%" filterUnits="userSpaceOnUse" primitiveUnits="userSpaceOnUse"><feComponentTransfer color-interpolation-filters="sRGB"><feFuncR type="discrete" tableValues="0 0"/><feFuncG type="discrete" tableValues="0 0"/><feFuncB type="discrete" tableValues="0 0"/><feFuncA type="linear" slope="1" intercept="0"/></feComponentTransfer><feGaussianBlur stdDeviation="6.11111 6.11111"/></filter><clipPath id="clip1"><rect x="596" y="136" width="61" height="66"/></clipPath></defs><g clip-path="url(#clip1)" transform="translate(-596 -136)"><g filter="url(#fx0)" transform="translate(595 135)"><g><path d="M40.2032 22.9557C44.7192 27.4718 44.6784 34.8345 40.112 39.4008 37.3559 42.1569 34.5999 44.9129 31.8438 47.669 29.1182 44.9433 26.3925 42.2177 23.6669 39.492 19.1509 34.976 19.1917 27.6133 23.7581 23.0469 28.3244 18.4806 35.6872 18.4397 40.2032 22.9557Z" fill="#FFFFFF" fill-rule="evenodd"/><g><g><g><path d="M10.8-8.32502C11.571-8.32502 12.2663-8.50502 12.8858-8.86502 13.5053-9.22503 14.0025-9.70502 14.3775-10.305 13.8675-10.695 13.3109-10.9875 12.7076-11.1825 12.1044-11.3775 11.4669-11.475 10.7951-11.475 10.1234-11.475 9.48753-11.3775 8.88752-11.1825 8.28752-10.9875 7.73253-10.695 7.22252-10.305 7.59753-9.70502 8.09478-9.22503 8.71427-8.86502 9.33377-8.50502 10.029-8.32502 10.8-8.32502ZM10.8021-12.825C11.2357-12.825 11.6063-12.9795 11.9138-13.2883 12.2213-13.5972 12.375-13.9684 12.375-14.4021 12.375-14.8357 12.2206-15.2063 11.9118-15.5138 11.6029-15.8213 11.2316-15.975 10.798-15.975 10.3644-15.975 9.99378-15.8206 9.68628-15.5118 9.37877-15.2029 9.22503-14.8317 9.22503-14.398 9.22503-13.9644 9.37944-13.5938 9.6883-13.2863 9.99716-12.9788 10.3684-12.825 10.8021-12.825ZM10.8-3.57751C12.795-5.39252 14.2688-7.03876 15.2213-8.51627 16.1738-9.99378 16.65-11.295 16.65-12.42 16.65-14.1869 16.0854-15.6337 14.956-16.7603 13.8267-17.8868 12.4413-18.4501 10.8-18.4501 9.15872-18.4501 7.77339-17.8868 6.64404-16.7603 5.5147-15.6337 4.95001-14.1869 4.95001-12.42 4.95001-11.295 5.43752-9.99378 6.41252-8.51627 7.38751-7.03876 8.85002-5.39252 10.8-3.57751ZM10.8-1.8C8.38503-3.855 6.58127-5.76377 5.38876-7.52627 4.19626-9.28877 3.60001-10.92 3.60001-12.42 3.60001-14.67 4.32377-16.4626 5.77127-17.7976 7.21876-19.1325 8.89502-19.8001 10.8-19.8001 12.705-19.8001 14.3813-19.1325 15.8288-17.7976 17.2763-16.4626 18-14.67 18-12.42 18-10.92 17.4038-9.28877 16.2113-7.52627 15.0188-5.76377 13.215-3.855 10.8-1.8Z" fill="#BB271A" transform="matrix(1.02777 0 0 1 21.1741 43.0882)"/></g></g></g></g></g><path d="M640.715 146.446C648.242 153.973 648.174 166.244 640.563 173.855 635.97 178.448 631.376 183.041 626.783 187.635 622.24 183.092 617.698 178.549 613.155 174.007 605.628 166.48 605.696 154.209 613.307 146.598 620.917 138.987 633.189 138.919 640.715 146.446Z" fill="#FFFFFF" fill-rule="evenodd"/><g><g><g><path d="M18-13.875C19.2851-13.875 20.4438-14.175 21.4763-14.775 22.5088-15.375 23.3376-16.175 23.9626-17.175 23.1126-17.825 22.1848-18.3125 21.1793-18.6376 20.174-18.9626 19.1116-19.1251 17.9918-19.1251 16.8723-19.1251 15.8126-18.9626 14.8125-18.6376 13.8125-18.3125 12.8875-17.825 12.0375-17.175 12.6625-16.175 13.4913-15.375 14.5238-14.775 15.5563-14.175 16.715-13.875 18-13.875ZM18.0034-21.3751C18.7262-21.3751 19.3438-21.6324 19.8563-22.1472 20.3688-22.6619 20.6251-23.2807 20.6251-24.0034 20.6251-24.7262 20.3677-25.3438 19.8529-25.8563 19.3382-26.3688 18.7194-26.6251 17.9967-26.6251 17.2739-26.6251 16.6563-26.3677 16.1438-25.8529 15.6313-25.3382 15.375-24.7194 15.375-23.9967 15.375-23.274 15.6324-22.6563 16.1472-22.1438 16.6619-21.6313 17.2807-21.3751 18.0034-21.3751ZM18-5.96252C21.3251-8.98754 23.7813-11.7313 25.3688-14.1938 26.9563-16.6563 27.7501-18.8251 27.7501-20.7001 27.7501-23.6448 26.8089-26.0561 24.9267-27.9338 23.0445-29.8113 20.7356-30.7501 18-30.7501 15.2645-30.7501 12.9556-29.8113 11.0734-27.9338 9.19116-26.0561 8.25002-23.6448 8.25002-20.7001 8.25002-18.8251 9.06254-16.6563 10.6875-14.1938 12.3125-11.7313 14.75-8.98754 18-5.96252ZM18-3.00001C13.975-6.425 10.9688-9.60629 8.98127-12.5438 6.99377-15.4813 6.00002-18.2 6.00002-20.7001 6.00002-24.4501 7.20628-27.4376 9.61878-29.6626 12.0313-31.8876 14.825-33.0001 18-33.0001 21.1751-33.0001 23.9688-31.8876 26.3813-29.6626 28.7938-27.4376 30.0001-24.4501 30.0001-20.7001 30.0001-18.2 29.0063-15.4813 27.0188-12.5438 25.0313-9.60629 22.025-6.425 18-3.00001Z" fill="#BB271A" transform="matrix(1.02777 0 0 1 609 180)"/></g></g></g></g></svg>