<svg width="61" height="66" xmlns="http://www.w3.org/2000/svg" xmlns:xlink="http://www.w3.org/1999/xlink" xml:space="preserve" overflow="hidden"><defs><filter id="fx0" x="-10%" y="-10%" width="120%" height="120%" filterUnits="userSpaceOnUse" primitiveUnits="userSpaceOnUse"><feComponentTransfer color-interpolation-filters="sRGB"><feFuncR type="discrete" tableValues="0 0"/><feFuncG type="discrete" tableValues="0 0"/><feFuncB type="discrete" tableValues="0 0"/><feFuncA type="linear" slope="1" intercept="0"/></feComponentTransfer><feGaussianBlur stdDeviation="6.11111 6.11111"/></filter><clipPath id="clip1"><rect x="693" y="212" width="61" height="66"/></clipPath></defs><g clip-path="url(#clip1)" transform="translate(-693 -212)"><g filter="url(#fx0)" transform="translate(692 211)"><g><path d="M39.8426 23.4132C44.4089 27.9796 44.4089 35.3831 39.8426 39.9495 37.0865 42.7056 34.3305 45.4616 31.5744 48.2176 28.8184 45.4616 26.0623 42.7056 23.3063 39.9495 18.7399 35.3831 18.7399 27.9796 23.3063 23.4132 27.8727 18.8469 35.2762 18.8469 39.8426 23.4132Z" fill="#FFFFFF" fill-rule="evenodd"/><g><g><g><path d="M29.3848 35.4866 31.5298 33.816 33.6748 35.4866 32.8498 32.8466 34.8711 31.1554 32.3961 31.1554 31.5298 28.6391 30.6636 31.1554 28.1886 31.1554 30.2098 32.8466 29.3848 35.4866ZM24.5173 38.7454C24.1736 38.7454 23.8814 38.6251 23.6408 38.3845 23.4001 38.1438 23.2798 37.8517 23.2798 37.5079L23.2798 34.7854C23.2798 34.6479 23.3176 34.5276 23.3933 34.4245 23.4689 34.3213 23.5686 34.2491 23.6923 34.2079 24.1186 34.0567 24.452 33.7851 24.6926 33.3932 24.9333 33.0013 25.0536 32.5854 25.0536 32.1454 25.0536 31.7191 24.9333 31.3066 24.6926 30.9079 24.452 30.5092 24.1186 30.2341 23.6923 30.0829 23.5686 30.0416 23.4689 29.9695 23.3933 29.8663 23.3176 29.7632 23.2798 29.6429 23.2798 29.5054L23.2798 26.7829C23.2798 26.4391 23.4001 26.147 23.6408 25.9063 23.8814 25.6657 24.1736 25.5454 24.5173 25.5454L38.5423 25.5454C38.8861 25.5454 39.1783 25.6657 39.4189 25.9063 39.6595 26.147 39.7798 26.4391 39.7798 26.7829L39.7798 29.5054C39.7798 29.6429 39.742 29.7632 39.6664 29.8663 39.5908 29.9695 39.4911 30.0416 39.3673 30.0829 38.9411 30.2341 38.6076 30.5092 38.367 30.9079 38.1264 31.3066 38.0061 31.7191 38.0061 32.1454 38.0061 32.5854 38.1264 33.0013 38.367 33.3932 38.6076 33.7851 38.9411 34.0567 39.3673 34.2079 39.4911 34.2491 39.5908 34.3213 39.6664 34.4245 39.742 34.5276 39.7798 34.6479 39.7798 34.7854L39.7798 37.5079C39.7798 37.8517 39.6595 38.1438 39.4189 38.3845 39.1783 38.6251 38.8861 38.7454 38.5423 38.7454L24.5173 38.7454ZM24.5173 37.5079 38.5423 37.5079 38.5423 35.2598C38.0198 34.9023 37.5936 34.4554 37.2636 33.9191 36.9336 33.3829 36.7686 32.7916 36.7686 32.1454 36.7686 31.4992 36.9336 30.9079 37.2636 30.3716 37.5936 29.8354 38.0198 29.3885 38.5423 29.031L38.5423 26.7829 24.5173 26.7829 24.5173 29.031C25.0536 29.3885 25.4833 29.8354 25.8064 30.3716 26.1295 30.9079 26.2911 31.4992 26.2911 32.1454 26.2911 32.7916 26.1295 33.3829 25.8064 33.9191 25.4833 34.4554 25.0536 34.9023 24.5173 35.2598L24.5173 37.5079Z" fill="#EAC452"/></g></g></g></g></g><path d="M737.355 222.946C744.965 230.557 744.965 242.896 737.355 250.507 732.761 255.1 728.168 259.694 723.574 264.287 718.981 259.694 714.388 255.1 709.794 250.507 702.184 242.896 702.184 230.557 709.794 222.946 717.405 215.336 729.744 215.336 737.355 222.946Z" fill="#FFFFFF" fill-rule="evenodd"/><g><g><g><path d="M719.925 243.069 723.5 240.284 727.075 243.069 725.7 238.669 729.069 235.85 724.944 235.85 723.5 231.656 722.056 235.85 717.931 235.85 721.3 238.669 719.925 243.069ZM711.813 248.5C711.24 248.5 710.753 248.3 710.352 247.898 709.951 247.497 709.75 247.01 709.75 246.438L709.75 241.9C709.75 241.671 709.813 241.47 709.939 241.298 710.065 241.127 710.231 241.006 710.438 240.938 711.148 240.685 711.704 240.233 712.105 239.58 712.506 238.927 712.706 238.233 712.706 237.5 712.706 236.79 712.506 236.102 712.105 235.438 711.704 234.773 711.148 234.315 710.438 234.063 710.231 233.994 710.065 233.873 709.939 233.702 709.813 233.53 709.75 233.329 709.75 233.1L709.75 228.563C709.75 227.99 709.951 227.503 710.352 227.102 710.753 226.701 711.24 226.5 711.813 226.5L735.188 226.5C735.761 226.5 736.247 226.701 736.649 227.102 737.05 227.503 737.25 227.99 737.25 228.563L737.25 233.1C737.25 233.329 737.187 233.53 737.061 233.702 736.935 233.873 736.769 233.994 736.563 234.063 735.852 234.315 735.297 234.773 734.895 235.438 734.494 236.102 734.294 236.79 734.294 237.5 734.294 238.233 734.494 238.927 734.895 239.58 735.297 240.233 735.852 240.685 736.563 240.938 736.769 241.006 736.935 241.127 737.061 241.298 737.187 241.47 737.25 241.671 737.25 241.9L737.25 246.438C737.25 247.01 737.05 247.497 736.649 247.898 736.247 248.3 735.761 248.5 735.188 248.5L711.813 248.5ZM711.813 246.438 735.188 246.438 735.188 242.691C734.317 242.095 733.606 241.35 733.056 240.456 732.506 239.563 732.231 238.577 732.231 237.5 732.231 236.423 732.506 235.438 733.056 234.544 733.606 233.65 734.317 232.905 735.188 232.309L735.188 228.563 711.813 228.563 711.813 232.309C712.706 232.905 713.422 233.65 713.961 234.544 714.5 235.438 714.769 236.423 714.769 237.5 714.769 238.577 714.5 239.563 713.961 240.456 713.422 241.35 712.706 242.095 711.813 242.691L711.813 246.438Z" fill="#EAC452"/></g></g></g></g></svg>