<svg width="61" height="66" xmlns="http://www.w3.org/2000/svg" xmlns:xlink="http://www.w3.org/1999/xlink" xml:space="preserve" overflow="hidden"><defs><filter id="fx0" x="-10%" y="-10%" width="120%" height="120%" filterUnits="userSpaceOnUse" primitiveUnits="userSpaceOnUse"><feComponentTransfer color-interpolation-filters="sRGB"><feFuncR type="discrete" tableValues="0 0"/><feFuncG type="discrete" tableValues="0 0"/><feFuncB type="discrete" tableValues="0 0"/><feFuncA type="linear" slope="1" intercept="0"/></feComponentTransfer><feGaussianBlur stdDeviation="6.11111 6.11111"/></filter><clipPath id="clip1"><rect x="307" y="211" width="61" height="66"/></clipPath></defs><g clip-path="url(#clip1)" transform="translate(-307 -211)"><g filter="url(#fx0)" transform="translate(305 210)"><g><path d="M40.3911 23.6203C44.9574 28.1867 44.9574 35.5903 40.3911 40.1566 37.635 42.9127 34.879 45.6687 32.1229 48.4248 29.3669 45.6687 26.6108 42.9127 23.8548 40.1566 19.2884 35.5903 19.2884 28.1867 23.8548 23.6203 28.4212 19.054 35.8247 19.054 40.3911 23.6203Z" fill="#FFFFFF" fill-rule="evenodd"/><g><g><g><path d="M8.43563-3.03188 8.76562-4.22813C8.83437-4.42062 8.93062-4.58562 9.05438-4.72312 9.17813-4.86063 9.33626-4.93624 9.52875-4.95L12.2719-5.15625C12.4781-5.17001 12.6603-5.12876 12.8184-5.0325 12.9766-4.93624 13.09-4.79876 13.1588-4.62L13.4269-3.81563C14.0044-4.17312 14.5234-4.58219 14.9841-5.04281 15.4447-5.50343 15.8194-6.02937 16.1081-6.62063L15.9019-6.78563C15.7231-6.89562 15.5994-7.03313 15.5306-7.19813 15.4619-7.36313 15.4413-7.53499 15.4688-7.71375L16.0875-10.4363C16.115-10.6287 16.2009-10.7766 16.3453-10.8797 16.4897-10.9828 16.6512-11.0412 16.83-11.055 16.7613-11.4125 16.6684-11.77 16.5516-12.1275 16.4347-12.485 16.2869-12.8425 16.1081-13.2 15.9981-13.1175 15.8744-13.0763 15.7369-13.0763 15.5994-13.0763 15.4619-13.1244 15.3244-13.2206L13.0144-14.5819C12.8631-14.6781 12.7531-14.8122 12.6844-14.9841 12.6156-15.1559 12.595-15.3381 12.6225-15.5306L12.8081-16.2731C12.3544-16.4931 11.8834-16.6547 11.3953-16.7578 10.9072-16.8609 10.4088-16.9125 9.9-16.9125 9.67999-16.9125 9.46688-16.9091 9.26063-16.9022 9.05438-16.8953 8.84126-16.8781 8.62125-16.8506L9.3225-15.3656C9.405-15.1869 9.41876-15.0012 9.36375-14.8088 9.30874-14.6163 9.19875-14.4513 9.03375-14.3138L6.99188-12.4988C6.82688-12.4025 6.64812-12.3441 6.45563-12.3234 6.26313-12.3028 6.07751-12.3475 5.89875-12.4575L3.93938-13.6125C3.58188-13.0488 3.31718-12.4541 3.14531-11.8284 2.97344-11.2028 2.8875-10.56 2.8875-9.9 2.8875-9.6525 2.91499-9.28125 2.97-8.78625L4.90875-8.97188C5.10124-8.99937 5.28344-8.96156 5.45531-8.85844 5.62718-8.75531 5.75438-8.60749 5.83688-8.415L6.82688-5.87813C6.90938-5.69937 6.93344-5.5275 6.89906-5.3625 6.86468-5.1975 6.77187-5.04626 6.62063-4.90875L5.83688-4.16625C6.22188-3.89126 6.63094-3.66094 7.06406-3.47531 7.49719-3.28969 7.95438-3.14187 8.43563-3.03188ZM10.065-6.80625C9.85875-6.79249 9.67657-6.83374 9.51844-6.93 9.36031-7.02626 9.24-7.16374 9.1575-7.3425L7.92-10.0856C7.85126-10.2644 7.84781-10.4431 7.90969-10.6219 7.97156-10.8006 8.085-10.945 8.25-11.055L10.4775-13.0144C10.615-13.1519 10.78-13.2172 10.9725-13.2103 11.165-13.2034 11.3506-13.1519 11.5294-13.0556L13.9631-11.5913C14.1281-11.495 14.245-11.3609 14.3138-11.1891 14.3825-11.0172 14.3963-10.835 14.355-10.6425L13.7363-7.755C13.6812-7.59 13.5816-7.44563 13.4372-7.32188 13.2928-7.19813 13.145-7.12938 12.9938-7.11563L10.065-6.80625ZM9.9-1.65C8.75876-1.65 7.68626-1.86656 6.6825-2.29969 5.67874-2.73281 4.80562-3.32063 4.06313-4.06313 3.32063-4.80562 2.73281-5.67874 2.29969-6.6825 1.86656-7.68626 1.65-8.75876 1.65-9.9 1.65-11.0412 1.86656-12.1137 2.29969-13.1175 2.73281-14.1213 3.32063-14.9944 4.06313-15.7369 4.80562-16.4794 5.67874-17.0672 6.6825-17.5003 7.68626-17.9334 8.75876-18.15 9.9-18.15 11.0412-18.15 12.1137-17.9334 13.1175-17.5003 14.1213-17.0672 14.9944-16.4794 15.7369-15.7369 16.4794-14.9944 17.0672-14.1213 17.5003-13.1175 17.9334-12.1137 18.15-11.0412 18.15-9.9 18.15-8.75876 17.9334-7.68626 17.5003-6.6825 17.0672-5.67874 16.4794-4.80562 15.7369-4.06313 14.9944-3.32063 14.1213-2.73281 13.1175-2.29969 12.1137-1.86656 11.0412-1.65 9.9-1.65Z" stroke="#FFFFFF" stroke-width="0.0206142" fill="#4B77D1" transform="matrix(1.0303 0 0 1 21.8492 42.1282)"/></g></g></g></g></g><path d="M350.903 222.154C358.514 229.764 358.514 242.103 350.903 249.714 346.31 254.307 341.716 258.901 337.123 263.494 332.53 258.901 327.936 254.307 323.343 249.714 315.732 242.103 315.732 229.764 323.343 222.154 330.953 214.543 343.293 214.543 350.903 222.154Z" fill="#FFFFFF" fill-rule="evenodd"/><g><g><g><path d="M14.0594-5.05312 14.6094-7.04688C14.7239-7.3677 14.8844-7.6427 15.0906-7.87188 15.2969-8.10105 15.5604-8.22707 15.8813-8.25L20.4531-8.59375C20.7969-8.61668 21.1005-8.54793 21.3641-8.3875 21.6276-8.22707 21.8167-7.99793 21.9312-7.7L22.3781-6.35938C23.3406-6.9552 24.2057-7.63699 24.9734-8.40469 25.7411-9.17239 26.3656-10.0489 26.8469-11.0344L26.5031-11.3094C26.2052-11.4927 25.9989-11.7219 25.8844-11.9969 25.7698-12.2719 25.7354-12.5583 25.7812-12.8562L26.8125-17.3938C26.8583-17.7146 27.0016-17.9609 27.2422-18.1328 27.4828-18.3047 27.7521-18.4021 28.05-18.425 27.9354-19.0208 27.7807-19.6167 27.5859-20.2125 27.3911-20.8083 27.1448-21.4042 26.8469-22 26.6636-21.8625 26.4573-21.7938 26.2281-21.7938 25.9989-21.7938 25.7698-21.8739 25.5406-22.0344L21.6906-24.3031C21.4386-24.4636 21.2552-24.687 21.1406-24.9734 21.0261-25.2599 20.9917-25.5636 21.0375-25.8844L21.3469-27.1219C20.5906-27.4886 19.8057-27.7578 18.9922-27.9297 18.1786-28.1016 17.3479-28.1875 16.5-28.1875 16.1333-28.1875 15.7781-28.1818 15.4344-28.1703 15.0906-28.1589 14.7354-28.1302 14.3688-28.0844L15.5375-25.6094C15.675-25.3114 15.6979-25.0021 15.6063-24.6812 15.5146-24.3604 15.3313-24.0854 15.0563-23.8563L11.6531-20.8313C11.3781-20.6708 11.0802-20.5734 10.7594-20.5391 10.4386-20.5047 10.1292-20.5792 9.83125-20.7625L6.56563-22.6875C5.9698-21.7479 5.52863-20.7568 5.24219-19.7141 4.95574-18.6714 4.8125-17.6 4.8125-16.5 4.8125-16.0875 4.85832-15.4688 4.95-14.6438L8.18125-14.9531C8.50207-14.9989 8.80574-14.9359 9.09219-14.7641 9.37863-14.5922 9.59062-14.3458 9.72813-14.025L11.3781-9.79688C11.5156-9.49895 11.5557-9.2125 11.4984-8.9375 11.4411-8.6625 11.2864-8.41043 11.0344-8.18125L9.72813-6.94375C10.3698-6.48543 11.0516-6.10156 11.7734-5.79219 12.4953-5.48281 13.2573-5.23645 14.0594-5.05312ZM16.775-11.3438C16.4312-11.3208 16.1276-11.3896 15.8641-11.55 15.6005-11.7104 15.4-11.9396 15.2625-12.2375L13.2-16.8094C13.0854-17.1073 13.0797-17.4052 13.1828-17.7031 13.2859-18.0011 13.475-18.2417 13.75-18.425L17.4625-21.6906C17.6917-21.9198 17.9667-22.0286 18.2875-22.0172 18.6083-22.0057 18.9177-21.9198 19.2156-21.7594L23.2719-19.3188C23.5469-19.1583 23.7417-18.9349 23.8563-18.6484 23.9708-18.362 23.9937-18.0583 23.925-17.7375L22.8938-12.925C22.8021-12.65 22.6359-12.4094 22.3953-12.2031 22.1547-11.9969 21.9083-11.8823 21.6562-11.8594L16.775-11.3438ZM16.5-2.75C14.5979-2.75 12.8104-3.11094 11.1375-3.83281 9.46457-4.55469 8.00938-5.53438 6.77188-6.77188 5.53438-8.00938 4.55469-9.46457 3.83281-11.1375 3.11094-12.8104 2.75-14.5979 2.75-16.5 2.75-18.4021 3.11094-20.1896 3.83281-21.8625 4.55469-23.5354 5.53438-24.9906 6.77188-26.2281 8.00938-27.4656 9.46457-28.4453 11.1375-29.1672 12.8104-29.8891 14.5979-30.25 16.5-30.25 18.4021-30.25 20.1896-29.8891 21.8625-29.1672 23.5354-28.4453 24.9906-27.4656 26.2281-26.2281 27.4656-24.9906 28.4453-23.5354 29.1672-21.8625 29.8891-20.1896 30.25-18.4021 30.25-16.5 30.25-14.5979 29.8891-12.8104 29.1672-11.1375 28.4453-9.46457 27.4656-8.00938 26.2281-6.77188 24.9906-5.53438 23.5354-4.55469 21.8625-3.83281 20.1896-3.11094 18.4021-2.75 16.5-2.75Z" stroke="#FFFFFF" stroke-width="0.034357" fill="#4B77D1" transform="matrix(1.0303 0 0 1 320 253)"/></g></g></g></g></svg>