<svg width="40" height="48" xmlns="http://www.w3.org/2000/svg" xmlns:xlink="http://www.w3.org/1999/xlink" xml:space="preserve" overflow="hidden"><g transform="translate(-653 -216)"><path d="M686.975 222.153C694.586 229.764 694.586 242.103 686.975 249.714 682.382 254.307 677.788 258.9 673.195 263.494 668.602 258.9 664.008 254.307 659.415 249.714 651.804 242.103 651.804 229.764 659.415 222.153 667.025 214.543 679.365 214.543 686.975 222.153Z" fill="#FFFFFF" fill-rule="evenodd"/><g><g><g><path d="M669.925 242.069 673.5 239.284 677.075 242.069 675.7 237.669 679.069 234.85 674.944 234.85 673.5 230.656 672.056 234.85 667.931 234.85 671.3 237.669 669.925 242.069ZM661.812 247.5C661.239 247.5 660.753 247.299 660.351 246.898 659.95 246.497 659.75 246.01 659.75 245.438L659.75 240.9C659.75 240.671 659.813 240.47 659.939 240.298 660.065 240.127 660.231 240.006 660.437 239.938 661.148 239.685 661.704 239.233 662.105 238.58 662.506 237.927 662.706 237.233 662.706 236.5 662.706 235.79 662.506 235.102 662.105 234.438 661.704 233.773 661.148 233.315 660.437 233.062 660.231 232.994 660.065 232.873 659.939 232.702 659.813 232.53 659.75 232.329 659.75 232.1L659.75 227.562C659.75 226.99 659.95 226.503 660.351 226.102 660.753 225.701 661.239 225.5 661.812 225.5L685.187 225.5C685.76 225.5 686.247 225.701 686.648 226.102 687.049 226.503 687.25 226.99 687.25 227.562L687.25 232.1C687.25 232.329 687.187 232.53 687.061 232.702 686.935 232.873 686.769 232.994 686.562 233.062 685.852 233.315 685.296 233.773 684.895 234.438 684.494 235.102 684.294 235.79 684.294 236.5 684.294 237.233 684.494 237.927 684.895 238.58 685.296 239.233 685.852 239.685 686.562 239.938 686.769 240.006 686.935 240.127 687.061 240.298 687.187 240.47 687.25 240.671 687.25 240.9L687.25 245.438C687.25 246.01 687.049 246.497 686.648 246.898 686.247 247.299 685.76 247.5 685.187 247.5L661.812 247.5ZM661.812 245.438 685.187 245.438 685.187 241.691C684.317 241.095 683.606 240.35 683.056 239.456 682.506 238.562 682.231 237.577 682.231 236.5 682.231 235.423 682.506 234.438 683.056 233.544 683.606 232.65 684.317 231.905 685.187 231.309L685.187 227.562 661.812 227.562 661.812 231.309C662.706 231.905 663.422 232.65 663.961 233.544 664.499 234.438 664.769 235.423 664.769 236.5 664.769 237.577 664.499 238.562 663.961 239.456 663.422 240.35 662.706 241.095 661.812 241.691L661.812 245.438Z" fill="#EAC452"/></g></g></g></g></svg>