<svg width="61" height="66" xmlns="http://www.w3.org/2000/svg" xmlns:xlink="http://www.w3.org/1999/xlink" xml:space="preserve" overflow="hidden"><defs><filter id="fx0" x="-10%" y="-10%" width="120%" height="120%" filterUnits="userSpaceOnUse" primitiveUnits="userSpaceOnUse"><feComponentTransfer color-interpolation-filters="sRGB"><feFuncR type="discrete" tableValues="0 0"/><feFuncG type="discrete" tableValues="0 0"/><feFuncB type="discrete" tableValues="0 0"/><feFuncA type="linear" slope="1" intercept="0"/></feComponentTransfer><feGaussianBlur stdDeviation="6.11111 6.11111"/></filter><clipPath id="clip1"><rect x="692" y="287" width="61" height="66"/></clipPath></defs><g clip-path="url(#clip1)" transform="translate(-692 -287)"><g filter="url(#fx0)" transform="translate(691 286)"><g><path d="M39.8714 22.9963C44.4378 27.5627 44.4378 34.9662 39.8714 39.5326 37.1153 42.2887 34.3593 45.0447 31.6032 47.8007 28.8472 45.0447 26.0912 42.2887 23.3351 39.5326 18.7687 34.9662 18.7687 27.5627 23.3351 22.9963 27.9015 18.43 35.305 18.43 39.8714 22.9963Z" fill="#FFFFFF" fill-rule="evenodd"/><g><g><g><path d="M30.077 38.8467 30.407 37.6505C30.4757 37.458 30.572 37.293 30.6957 37.1555 30.8195 37.018 30.9776 36.9424 31.1701 36.9286L33.9132 36.7224C34.1195 36.7086 34.3017 36.7498 34.4598 36.8461 34.6179 36.9424 34.7314 37.0798 34.8001 37.2586L35.0682 38.063C35.6457 37.7055 36.1648 37.2964 36.6254 36.8358 37.086 36.3752 37.4607 35.8492 37.7495 35.258L37.5432 35.093C37.3645 34.983 37.2407 34.8455 37.172 34.6805 37.1032 34.5155 37.0826 34.3436 37.1101 34.1649L37.7289 31.4424C37.7564 31.2499 37.8423 31.102 37.9867 30.9989 38.131 30.8958 38.2926 30.8374 38.4714 30.8236 38.4026 30.4661 38.3098 30.1086 38.1929 29.7511 38.076 29.3936 37.9282 29.0361 37.7495 28.6786 37.6395 28.7611 37.5157 28.8024 37.3782 28.8024 37.2407 28.8024 37.1032 28.7542 36.9657 28.658L34.6557 27.2967C34.5045 27.2005 34.3945 27.0664 34.3257 26.8945 34.257 26.7227 34.2364 26.5405 34.2639 26.348L34.4495 25.6055C33.9957 25.3855 33.5248 25.2239 33.0367 25.1208 32.5485 25.0177 32.0501 24.9661 31.5414 24.9661 31.3214 24.9661 31.1082 24.9695 30.902 24.9764 30.6957 24.9833 30.4826 25.0005 30.2626 25.028L30.9639 26.513C31.0464 26.6917 31.0601 26.8774 31.0051 27.0699 30.9501 27.2623 30.8401 27.4273 30.6751 27.5648L28.6332 29.3799C28.4682 29.4761 28.2895 29.5345 28.097 29.5552 27.9045 29.5758 27.7189 29.5311 27.5401 29.4211L25.5807 28.2661C25.2232 28.8298 24.9585 29.4245 24.7867 30.0502 24.6148 30.6758 24.5289 31.3186 24.5289 31.9786 24.5289 32.2261 24.5564 32.5974 24.6114 33.0924L26.5501 32.9067C26.7426 32.8792 26.9248 32.917 27.0967 33.0202 27.2685 33.1233 27.3957 33.2711 27.4782 33.4636L28.4682 36.0005C28.5507 36.1792 28.5748 36.3511 28.5404 36.5161 28.506 36.6811 28.4132 36.8323 28.262 36.9699L27.4782 37.7123C27.8632 37.9873 28.2723 38.2177 28.7054 38.4033 29.1385 38.5889 29.5957 38.7367 30.077 38.8467ZM31.7064 35.0723C31.5001 35.0861 31.3179 35.0449 31.1598 34.9486 31.0017 34.8523 30.8814 34.7149 30.7989 34.5361L29.5614 31.793C29.4926 31.6142 29.4892 31.4355 29.551 31.2567 29.6129 31.078 29.7264 30.9336 29.8914 30.8236L32.1189 28.8642C32.2564 28.7267 32.4214 28.6614 32.6139 28.6683 32.8064 28.6752 32.992 28.7267 33.1707 28.823L35.6045 30.2873C35.7695 30.3836 35.8864 30.5177 35.9551 30.6895 36.0238 30.8614 36.0376 31.0436 35.9964 31.2361L35.3776 34.1236C35.3226 34.2886 35.2229 34.433 35.0785 34.5567 34.9342 34.6805 34.7864 34.7492 34.6351 34.763L31.7064 35.0723ZM31.5414 40.2286C30.4001 40.2286 29.3276 40.012 28.3239 39.5789 27.3201 39.1458 26.447 38.558 25.7045 37.8155 24.962 37.073 24.3742 36.1999 23.941 35.1961 23.5079 34.1923 23.2914 33.1198 23.2914 31.9786 23.2914 30.8374 23.5079 29.7649 23.941 28.7611 24.3742 27.7573 24.962 26.8842 25.7045 26.1417 26.447 25.3992 27.3201 24.8114 28.3239 24.3783 29.3276 23.9452 30.4001 23.7286 31.5414 23.7286 32.6826 23.7286 33.7551 23.9452 34.7589 24.3783 35.7626 24.8114 36.6357 25.3992 37.3782 26.1417 38.1207 26.8842 38.7085 27.7573 39.1417 28.7611 39.5748 29.7649 39.7914 30.8374 39.7914 31.9786 39.7914 33.1198 39.5748 34.1923 39.1417 35.1961 38.7085 36.1999 38.1207 37.073 37.3782 37.8155 36.6357 38.558 35.7626 39.1458 34.7589 39.5789 33.7551 40.012 32.6826 40.2286 31.5414 40.2286Z" stroke="#FFFFFF" stroke-width="0.0206142" fill="#4B77D1"/></g></g></g></g></g><path d="M736.384 297.53C743.994 305.14 743.994 317.479 736.384 325.09 731.79 329.683 727.197 334.277 722.603 338.87 718.01 334.277 713.417 329.683 708.823 325.09 701.212 317.479 701.212 305.14 708.823 297.53 716.434 289.919 728.773 289.919 736.384 297.53Z" fill="#FFFFFF" fill-rule="evenodd"/><g><g><g><path d="M720.059 323.947 720.609 321.953C720.724 321.632 720.884 321.357 721.091 321.128 721.297 320.899 721.56 320.773 721.881 320.75L726.453 320.406C726.797 320.383 727.101 320.452 727.364 320.612 727.628 320.773 727.817 321.002 727.931 321.3L728.378 322.641C729.341 322.045 730.206 321.363 730.974 320.595 731.741 319.828 732.366 318.951 732.847 317.966L732.503 317.691C732.205 317.507 731.999 317.278 731.884 317.003 731.77 316.728 731.735 316.442 731.781 316.144L732.813 311.606C732.858 311.285 733.002 311.039 733.242 310.867 733.483 310.695 733.752 310.598 734.05 310.575 733.935 309.979 733.781 309.383 733.586 308.787 733.391 308.192 733.145 307.596 732.847 307 732.664 307.137 732.457 307.206 732.228 307.206 731.999 307.206 731.77 307.126 731.541 306.966L727.691 304.697C727.439 304.536 727.255 304.313 727.141 304.027 727.026 303.74 726.992 303.436 727.038 303.116L727.347 301.878C726.591 301.511 725.806 301.242 724.992 301.07 724.179 300.898 723.348 300.812 722.5 300.812 722.133 300.812 721.778 300.818 721.434 300.83 721.091 300.841 720.735 300.87 720.369 300.916L721.538 303.391C721.675 303.689 721.698 303.998 721.606 304.319 721.515 304.64 721.331 304.915 721.056 305.144L717.653 308.169C717.378 308.329 717.08 308.427 716.759 308.461 716.439 308.495 716.129 308.421 715.831 308.237L712.566 306.312C711.97 307.252 711.529 308.243 711.242 309.286 710.956 310.329 710.813 311.4 710.813 312.5 710.813 312.912 710.858 313.531 710.95 314.356L714.181 314.047C714.502 314.001 714.806 314.064 715.092 314.236 715.379 314.408 715.591 314.654 715.728 314.975L717.378 319.203C717.516 319.501 717.556 319.787 717.498 320.062 717.441 320.337 717.286 320.59 717.034 320.819L715.728 322.056C716.37 322.515 717.052 322.898 717.773 323.208 718.495 323.517 719.257 323.764 720.059 323.947ZM722.775 317.656C722.431 317.679 722.128 317.61 721.864 317.45 721.601 317.29 721.4 317.06 721.263 316.762L719.2 312.191C719.086 311.893 719.08 311.595 719.183 311.297 719.286 310.999 719.475 310.758 719.75 310.575L723.463 307.309C723.692 307.08 723.967 306.971 724.288 306.983 724.608 306.994 724.918 307.08 725.216 307.241L729.272 309.681C729.547 309.842 729.742 310.065 729.856 310.352 729.971 310.638 729.994 310.942 729.925 311.262L728.894 316.075C728.802 316.35 728.636 316.591 728.395 316.797 728.155 317.003 727.908 317.118 727.656 317.141L722.775 317.656ZM722.5 326.25C720.598 326.25 718.81 325.889 717.138 325.167 715.465 324.445 714.009 323.466 712.772 322.228 711.534 320.991 710.555 319.535 709.833 317.862 709.111 316.19 708.75 314.402 708.75 312.5 708.75 310.598 709.111 308.81 709.833 307.137 710.555 305.465 711.534 304.009 712.772 302.772 714.009 301.534 715.465 300.555 717.138 299.833 718.81 299.111 720.598 298.75 722.5 298.75 724.402 298.75 726.19 299.111 727.863 299.833 729.535 300.555 730.991 301.534 732.228 302.772 733.466 304.009 734.445 305.465 735.167 307.137 735.889 308.81 736.25 310.598 736.25 312.5 736.25 314.402 735.889 316.19 735.167 317.862 734.445 319.535 733.466 320.991 732.228 322.228 730.991 323.466 729.535 324.445 727.863 325.167 726.19 325.889 724.402 326.25 722.5 326.25Z" stroke="#FFFFFF" stroke-width="0.034357" fill="#4B77D1"/></g></g></g></g></svg>