<svg width="40" height="48" xmlns="http://www.w3.org/2000/svg" xmlns:xlink="http://www.w3.org/1999/xlink" xml:space="preserve" overflow="hidden"><g transform="translate(-2409 -201)"><path d="M2442.88 207.163C2450.49 214.774 2450.49 227.113 2442.88 234.724 2438.29 239.317 2433.69 243.91 2429.1 248.504 2424.51 243.91 2419.91 239.317 2415.32 234.724 2407.71 227.113 2407.71 214.774 2415.32 207.163 2422.93 199.553 2435.27 199.553 2442.88 207.163Z" fill="#FFFFFF" fill-rule="evenodd"/><g><g><g><path d="M18.4937-2.75 14.5406-2.75 14.5406-7.87188 4.125-7.87188 10.6219-17.2906 7.35625-17.2906 16.5-30.25 25.6438-17.2906 22.4125-17.2906 28.875-7.87188 18.4937-7.87188 18.4937-2.75ZM8.1125-9.93437 14.6094-9.93437 11.5156-9.93437 21.4844-9.93437 18.425-9.93437 24.9219-9.93437 8.1125-9.93437ZM8.1125-9.93437 24.9219-9.93437 18.425-19.3531 21.4844-19.3531 16.5-26.4344 11.5156-19.3531 14.6094-19.3531 8.1125-9.93437Z" fill="#78A75A" transform="matrix(1.0303 0 0 1 2412 238)"/></g></g></g></g></svg>