<svg width="61" height="66" xmlns="http://www.w3.org/2000/svg" xmlns:xlink="http://www.w3.org/1999/xlink" xml:space="preserve" overflow="hidden"><defs><filter id="fx0" x="-10%" y="-10%" width="120%" height="120%" filterUnits="userSpaceOnUse" primitiveUnits="userSpaceOnUse"><feComponentTransfer color-interpolation-filters="sRGB"><feFuncR type="discrete" tableValues="0 0"/><feFuncG type="discrete" tableValues="0 0"/><feFuncB type="discrete" tableValues="0 0"/><feFuncA type="linear" slope="1" intercept="0"/></feComponentTransfer><feGaussianBlur stdDeviation="6.11111 6.11111"/></filter><clipPath id="clip1"><rect x="692" y="134" width="61" height="66"/></clipPath></defs><g clip-path="url(#clip1)" transform="translate(-692 -134)"><g filter="url(#fx0)" transform="translate(691 133)"><g><path d="M39.8714 23.5687C44.4378 28.1351 44.4378 35.5387 39.8714 40.105 37.1153 42.8611 34.3593 45.6171 31.6032 48.3732 28.8472 45.6171 26.0912 42.8611 23.3351 40.105 18.7687 35.5387 18.7687 28.1351 23.3351 23.5687 27.9015 19.0024 35.305 19.0024 39.8714 23.5687Z" fill="#FFFFFF" fill-rule="evenodd"/><g><g><g><path d="M10.76-1.6 8.45999-1.6 8.45999-4.58 2.4-4.58 6.17999-10.06 4.28-10.06 9.59999-17.6 14.92-10.06 13.04-10.06 16.8-4.58 10.76-4.58 10.76-1.6ZM4.72-5.77999 8.49999-5.77999 6.69999-5.77999 12.5-5.77999 10.72-5.77999 14.5-5.77999 4.72-5.77999ZM4.72-5.77999 14.5-5.77999 10.72-11.26 12.5-11.26 9.59999-15.38 6.69999-11.26 8.49999-11.26 4.72-5.77999Z" fill="#78A75A" transform="matrix(1.03125 0 0 1 21.6414 41.5076)"/></g></g></g></g></g><path d="M736.384 145.102C743.994 152.713 743.994 165.052 736.384 172.662 731.79 177.256 727.197 181.849 722.603 186.443 718.01 181.849 713.417 177.256 708.823 172.662 701.212 165.052 701.212 152.713 708.823 145.102 716.434 137.491 728.773 137.491 736.384 145.102Z" fill="#FFFFFF" fill-rule="evenodd"/><g><g><g><path d="M17.9333-2.66666 14.1-2.66666 14.1-7.63333 4-7.63333 10.3-16.7666 7.13333-16.7666 16-29.3333 24.8666-16.7666 21.7333-16.7666 28-7.63333 17.9333-7.63333 17.9333-2.66666ZM7.86666-9.63332 14.1667-9.63332 11.1667-9.63332 20.8333-9.63332 17.8666-9.63332 24.1666-9.63332 7.86666-9.63332ZM7.86666-9.63332 24.1666-9.63332 17.8666-18.7666 20.8333-18.7666 16-25.6333 11.1667-18.7666 14.1667-18.7666 7.86666-9.63332Z" fill="#78A75A" transform="matrix(1.03125 0 0 1 706 175)"/></g></g></g></g></svg>