<svg width="40" height="48" xmlns="http://www.w3.org/2000/svg" xmlns:xlink="http://www.w3.org/1999/xlink" xml:space="preserve" overflow="hidden"><g transform="translate(-317 -216)"><path d="M350.903 222.154C358.514 229.764 358.514 242.103 350.903 249.714 346.31 254.307 341.716 258.901 337.123 263.494 332.53 258.901 327.936 254.307 323.343 249.714 315.732 242.103 315.732 229.764 323.343 222.154 330.953 214.543 343.293 214.543 350.903 222.154Z" fill="#FFFFFF" fill-rule="evenodd"/><g><g><g><path d="M14.0594-5.05312 14.6094-7.04688C14.7239-7.3677 14.8844-7.6427 15.0906-7.87188 15.2969-8.10105 15.5604-8.22707 15.8813-8.25L20.4531-8.59375C20.7969-8.61668 21.1005-8.54793 21.3641-8.3875 21.6276-8.22707 21.8167-7.99793 21.9312-7.7L22.3781-6.35938C23.3406-6.9552 24.2057-7.63699 24.9734-8.40469 25.7411-9.17239 26.3656-10.0489 26.8469-11.0344L26.5031-11.3094C26.2052-11.4927 25.9989-11.7219 25.8844-11.9969 25.7698-12.2719 25.7354-12.5583 25.7812-12.8562L26.8125-17.3938C26.8583-17.7146 27.0016-17.9609 27.2422-18.1328 27.4828-18.3047 27.7521-18.4021 28.05-18.425 27.9354-19.0208 27.7807-19.6167 27.5859-20.2125 27.3911-20.8083 27.1448-21.4042 26.8469-22 26.6636-21.8625 26.4573-21.7938 26.2281-21.7938 25.9989-21.7938 25.7698-21.8739 25.5406-22.0344L21.6906-24.3031C21.4386-24.4636 21.2552-24.687 21.1406-24.9734 21.0261-25.2599 20.9917-25.5636 21.0375-25.8844L21.3469-27.1219C20.5906-27.4886 19.8057-27.7578 18.9922-27.9297 18.1786-28.1016 17.3479-28.1875 16.5-28.1875 16.1333-28.1875 15.7781-28.1818 15.4344-28.1703 15.0906-28.1589 14.7354-28.1302 14.3688-28.0844L15.5375-25.6094C15.675-25.3114 15.6979-25.0021 15.6063-24.6812 15.5146-24.3604 15.3313-24.0854 15.0563-23.8563L11.6531-20.8313C11.3781-20.6708 11.0802-20.5734 10.7594-20.5391 10.4386-20.5047 10.1292-20.5792 9.83125-20.7625L6.56563-22.6875C5.9698-21.7479 5.52863-20.7568 5.24219-19.7141 4.95574-18.6714 4.8125-17.6 4.8125-16.5 4.8125-16.0875 4.85832-15.4688 4.95-14.6438L8.18125-14.9531C8.50207-14.9989 8.80574-14.9359 9.09219-14.7641 9.37863-14.5922 9.59062-14.3458 9.72813-14.025L11.3781-9.79688C11.5156-9.49895 11.5557-9.2125 11.4984-8.9375 11.4411-8.6625 11.2864-8.41043 11.0344-8.18125L9.72813-6.94375C10.3698-6.48543 11.0516-6.10156 11.7734-5.79219 12.4953-5.48281 13.2573-5.23645 14.0594-5.05312ZM16.775-11.3438C16.4312-11.3208 16.1276-11.3896 15.8641-11.55 15.6005-11.7104 15.4-11.9396 15.2625-12.2375L13.2-16.8094C13.0854-17.1073 13.0797-17.4052 13.1828-17.7031 13.2859-18.0011 13.475-18.2417 13.75-18.425L17.4625-21.6906C17.6917-21.9198 17.9667-22.0286 18.2875-22.0172 18.6083-22.0057 18.9177-21.9198 19.2156-21.7594L23.2719-19.3188C23.5469-19.1583 23.7417-18.9349 23.8563-18.6484 23.9708-18.362 23.9937-18.0583 23.925-17.7375L22.8938-12.925C22.8021-12.65 22.6359-12.4094 22.3953-12.2031 22.1547-11.9969 21.9083-11.8823 21.6562-11.8594L16.775-11.3438ZM16.5-2.75C14.5979-2.75 12.8104-3.11094 11.1375-3.83281 9.46457-4.55469 8.00938-5.53438 6.77188-6.77188 5.53438-8.00938 4.55469-9.46457 3.83281-11.1375 3.11094-12.8104 2.75-14.5979 2.75-16.5 2.75-18.4021 3.11094-20.1896 3.83281-21.8625 4.55469-23.5354 5.53438-24.9906 6.77188-26.2281 8.00938-27.4656 9.46457-28.4453 11.1375-29.1672 12.8104-29.8891 14.5979-30.25 16.5-30.25 18.4021-30.25 20.1896-29.8891 21.8625-29.1672 23.5354-28.4453 24.9906-27.4656 26.2281-26.2281 27.4656-24.9906 28.4453-23.5354 29.1672-21.8625 29.8891-20.1896 30.25-18.4021 30.25-16.5 30.25-14.5979 29.8891-12.8104 29.1672-11.1375 28.4453-9.46457 27.4656-8.00938 26.2281-6.77188 24.9906-5.53438 23.5354-4.55469 21.8625-3.83281 20.1896-3.11094 18.4021-2.75 16.5-2.75Z" stroke="#FFFFFF" stroke-width="0.034357" fill="#4B77D1" transform="matrix(1.0303 0 0 1 320 253)"/></g></g></g></g></svg>