<svg width="61" height="66" xmlns="http://www.w3.org/2000/svg" xmlns:xlink="http://www.w3.org/1999/xlink" xml:space="preserve" overflow="hidden"><defs><filter id="fx0" x="-10%" y="-10%" width="120%" height="120%" filterUnits="userSpaceOnUse" primitiveUnits="userSpaceOnUse"><feComponentTransfer color-interpolation-filters="sRGB"><feFuncR type="discrete" tableValues="0 0"/><feFuncG type="discrete" tableValues="0 0"/><feFuncB type="discrete" tableValues="0 0"/><feFuncA type="linear" slope="1" intercept="0"/></feComponentTransfer><feGaussianBlur stdDeviation="6.11111 6.11111"/></filter><clipPath id="clip1"><rect x="773" y="136" width="61" height="66"/></clipPath></defs><g clip-path="url(#clip1)" transform="translate(-773 -136)"><g filter="url(#fx0)" transform="translate(771 134)"><g><path d="M40.3627 23.9127C44.9291 28.4791 44.9291 35.8826 40.3627 40.449 37.6067 43.205 34.8506 45.9611 32.0946 48.7171 29.3385 45.9611 26.5825 43.205 23.8264 40.449 19.2601 35.8826 19.2601 28.4791 23.8264 23.9127 28.3928 19.3463 35.7964 19.3463 40.3627 23.9127Z" fill="#FFFFFF" fill-rule="evenodd"/><g><g><g><path d="M9.9-5.6925C11.3988-6.83374 12.5297-7.99906 13.2928-9.18844 14.0559-10.3778 14.4375-11.44 14.4375-12.375 14.4375-13.7088 14.0147-14.7984 13.1691-15.6441 12.3234-16.4897 11.2338-16.9125 9.9-16.9125 8.56624-16.9125 7.47656-16.4897 6.63094-15.6441 5.78531-14.7984 5.3625-13.7088 5.3625-12.375 5.3625-11.4537 5.74406-10.3984 6.50719-9.20906 7.27031-8.01968 8.40124-6.8475 9.9-5.6925ZM9.9-4.125C7.94749-5.54126 6.49688-6.95749 5.54813-8.37375 4.59938-9.79001 4.125-11.1237 4.125-12.375 4.125-14.0663 4.66469-15.4516 5.74406-16.5309 6.82343-17.6103 8.20875-18.15 9.9-18.15 11.5913-18.15 12.9766-17.6103 14.0559-16.5309 15.1353-15.4516 15.675-14.0663 15.675-12.375 15.675-11.1237 15.2006-9.79001 14.2519-8.37375 13.3031-6.95749 11.8525-5.54126 9.9-4.125ZM9.87938-10.725C10.3469-10.725 10.7422-10.8866 11.0653-11.2097 11.3884-11.5328 11.55-11.9213 11.55-12.375 11.55-12.8288 11.3884-13.2172 11.0653-13.5403 10.7422-13.8634 10.3469-14.025 9.87938-14.025 9.42563-14.025 9.04062-13.8634 8.72438-13.5403 8.40813-13.2172 8.25-12.8288 8.25-12.375 8.25-11.9213 8.40813-11.5328 8.72438-11.2097 9.04062-10.8866 9.42563-10.725 9.87938-10.725ZM4.125-1.65 4.125-2.8875 15.675-2.8875 15.675-1.65 4.125-1.65Z" fill="#BB271A" transform="matrix(1.03029 0 0 1 21.8379 42.2452)"/></g></g></g></g></g><path d="M816.875 146.446C824.485 154.057 824.485 166.396 816.875 174.006 812.281 178.6 807.688 183.193 803.095 187.787 798.501 183.193 793.908 178.6 789.314 174.006 781.704 166.396 781.704 154.057 789.314 146.446 796.925 138.835 809.264 138.835 816.875 146.446Z" fill="#FFFFFF" fill-rule="evenodd"/><g><g><g><path d="M16.5-9.4875C18.9979-11.3896 20.8828-13.3318 22.1547-15.3141 23.4266-17.2964 24.0625-19.0667 24.0625-20.625 24.0625-22.8479 23.3578-24.6641 21.9484-26.0734 20.5391-27.4828 18.7229-28.1875 16.5-28.1875 14.2771-28.1875 12.4609-27.4828 11.0516-26.0734 9.64219-24.6641 8.9375-22.8479 8.9375-20.625 8.9375-19.0896 9.57344-17.3307 10.8453-15.3484 12.1172-13.3661 14.0021-11.4125 16.5-9.4875ZM16.5-6.875C13.2458-9.23543 10.8281-11.5958 9.24687-13.9563 7.66563-16.3167 6.875-18.5396 6.875-20.625 6.875-23.4438 7.77449-25.7526 9.57344-27.5516 11.3724-29.3505 13.6813-30.25 16.5-30.25 19.3188-30.25 21.6276-29.3505 23.4266-27.5516 25.2255-25.7526 26.125-23.4438 26.125-20.625 26.125-18.5396 25.3344-16.3167 23.7531-13.9563 22.1719-11.5958 19.7542-9.23543 16.5-6.875ZM16.4656-17.875C17.2448-17.875 17.9036-18.1443 18.4422-18.6828 18.9807-19.2214 19.25-19.8687 19.25-20.625 19.25-21.3813 18.9807-22.0286 18.4422-22.5672 17.9036-23.1057 17.2448-23.375 16.4656-23.375 15.7094-23.375 15.0677-23.1057 14.5406-22.5672 14.0136-22.0286 13.75-21.3813 13.75-20.625 13.75-19.8687 14.0136-19.2214 14.5406-18.6828 15.0677-18.1443 15.7094-17.875 16.4656-17.875ZM6.875-2.75 6.875-4.8125 26.125-4.8125 26.125-2.75 6.875-2.75Z" fill="#BB271A" transform="matrix(1.03029 0 0 1 786 177)"/></g></g></g></g></svg>