<svg width="40" height="48" xmlns="http://www.w3.org/2000/svg" xmlns:xlink="http://www.w3.org/1999/xlink" xml:space="preserve" overflow="hidden"><g transform="translate(-1354 -202)"><path d="M1387.8 207.773C1395.41 215.384 1395.41 227.723 1387.8 235.334 1383.21 239.927 1378.61 244.521 1374.02 249.114 1369.43 244.521 1364.83 239.927 1360.24 235.334 1352.63 227.723 1352.63 215.384 1360.24 207.773 1367.85 200.163 1380.19 200.163 1387.8 207.773Z" fill="#FFFFFF" fill-rule="evenodd"/><g><g><g><path d="M16.5-9.4875C18.9979-11.3896 20.8828-13.3318 22.1547-15.3141 23.4266-17.2964 24.0625-19.0667 24.0625-20.625 24.0625-22.8479 23.3578-24.6641 21.9484-26.0734 20.5391-27.4828 18.7229-28.1875 16.5-28.1875 14.2771-28.1875 12.4609-27.4828 11.0516-26.0734 9.64219-24.6641 8.9375-22.8479 8.9375-20.625 8.9375-19.0896 9.57344-17.3307 10.8453-15.3484 12.1172-13.3661 14.0021-11.4125 16.5-9.4875ZM16.5-6.875C13.2458-9.23542 10.8281-11.5958 9.24687-13.9563 7.66563-16.3167 6.875-18.5396 6.875-20.625 6.875-23.4438 7.77448-25.7526 9.57344-27.5516 11.3724-29.3505 13.6813-30.25 16.5-30.25 19.3188-30.25 21.6276-29.3505 23.4266-27.5516 25.2255-25.7526 26.125-23.4438 26.125-20.625 26.125-18.5396 25.3344-16.3167 23.7531-13.9563 22.1719-11.5958 19.7542-9.23542 16.5-6.875ZM16.4656-17.875C17.2448-17.875 17.9036-18.1443 18.4422-18.6828 18.9807-19.2214 19.25-19.8687 19.25-20.625 19.25-21.3813 18.9807-22.0286 18.4422-22.5672 17.9036-23.1057 17.2448-23.375 16.4656-23.375 15.7094-23.375 15.0677-23.1057 14.5406-22.5672 14.0135-22.0286 13.75-21.3813 13.75-20.625 13.75-19.8687 14.0135-19.2214 14.5406-18.6828 15.0677-18.1443 15.7094-17.875 16.4656-17.875ZM6.875-2.75 6.875-4.8125 26.125-4.8125 26.125-2.75 6.875-2.75Z" fill="#BB271A" transform="matrix(1.0303 0 0 1 1357 238)"/></g></g></g></g></svg>